<?xml version="1.0" encoding="UTF-8"?>
<svg id="Laag_1" xmlns="http://www.w3.org/2000/svg" version="1.1" viewBox="0 0 69 3">
  <!-- Generator: Adobe Illustrator 30.0.0, SVG Export Plug-In . SVG Version: 2.1.1 Build 123)  -->
  <defs>
    <style>
      .st0 {
        fill: #d2060d;
      }

      .st1 {
        fill: #fff;
      }
    </style>
  </defs>
  <path class="st1" d="M4.99-4.01s-.07.02-.1.03c-.08,0-.15,0-.17,0-.38.03-1.03.04-1.24.1-.4.01-.6.04-.97.06-.04.01.1,0,.1.02.71,0,.82-.04,1.34-.05-.05-.02.54-.02.59-.04.04,0,.09,0,.1,0h-.06s.06.01.06.01c.05.02-.08.01-.05.02h-.22s.06,0,.05,0c-.42.02-1.1.02-1.07.09.41.02.74.05,1.18.06.05,0,.04,0,.05,0,.01.03.26.03.37.05-.01.02-.13.03-.27.03.01,0,.05,0,.05,0h-.08s.03,0,.03,0c-.06.01-.33,0-.37,0-.07,0-.05,0-.02,0h.04s.03,0,0,0h-.12.03c-.17,0-.37,0-.43-.02h-.03c-.09.02-.27.02-.49.02.03-.02.06-.02-.05-.03h.08s-.08,0-.08,0c.33-.05-.43-.07-.64-.1-.13,0-.11,0-.27,0,.05-.02-.05-.02-.1-.03-.35,0-.43.05-.64.07-.17,0-.27,0-.32.02-.64,0-.86-.04-1.26-.07v-.21c.19,0,.38-.01.56-.02h-.21s-.35-.01-.35-.01v-1.25c.19.01.41.02.65,0,.1,0-.09.02.17.02-.15.04-.17.08.27.09.22,0,.57,0,.86,0,.15,0,.29.03.59.03-.29.03.05.03,0,.08.33.02.64.03.98.04h1.07c.15-.02.16-.06.32-.08.11,0,.15.02.32.02.28-.02.42-.05.54-.08-.06-.01-.11-.02-.17-.01-.36,0-.83.04-.97,0-.04-.02.18,0,.16-.02-.09-.07.79-.09.97-.15-.07-.02-.14-.03-.21-.04.29,0,.64-.02.59-.05h.28c.14,0,.27,0,.31.02,0,.01-.09.02-.16.02.11.03.15.07.43.09-.05.02-.1.04-.32.05-.08.08.65.11,1.02.16.19,0,.24-.02.32-.03-.23-.02-.56-.02-.49-.07.43-.03,1.01-.04,1.18-.09.27,0,.38-.02.37-.04.32-.02.44-.05.64-.08-.13-.03-.7-.04-.48-.09-.09-.02-.27-.03-.37-.05.2-.04.14-.09.27-.12-.03,0-.11,0-.1-.02.1,0,.5.01.54,0,.33.01,1.01.02,1.18,0,.41,0,.64,0,1.07.02-.02.04.28.04.32.07.11,0,.37-.03.43,0,.03,0,.07,0,.1-.02.08,0,.19,0,.31,0h.27c.05.02.05.05.27.05.23,0,.28-.01.43-.02-.08-.03.13-.03.17-.06.08,0,.15.02.22.03h-.08s.08,0,.08,0c.04.03.17,0,.22,0,.09,0,.13.02.37.03.13,0,.38,0,.37.03.13,0,.12-.01.27,0,.18.02.18.05.37.06.41,0,.47.02.81.03-.03,0,.04.01.05.02.35.02.61.07,1.02.07-.14.02.57.08.64.02h.08s.02,0,.02,0c.13,0,.18-.02.37-.03.08,0-.02,0,0,.02.23,0,.42-.03.64,0,.06,0,.04,0,.05-.02.13,0,.26,0,.43,0,.15.05.1.06.05.11.1.02.22,0,.37,0-.18.02.31.06.37.06.14,0,.17-.01.17-.03v-.02s.02-.02.1-.03c.18,0,.24,0,.37.02.19-.02.56-.04.81-.02,0-.03.5,0,.54-.03.13,0,.1.03.32.04h-.08s.03,0,.03,0c-.04,0-.14.03.05.03v-.02h.08s-.03-.01-.03-.01c.42,0,.42.04.91.03.25-.03.64-.04.75-.08.33,0,.51.02.64.05.54,0,.6-.03.97-.04.11,0,.05-.02.17-.02.18,0,.08.02.22.02.09,0-.04-.02.1-.03.05,0,.15,0,.17,0,.08,0,.11-.01.1-.03.2,0,.33,0,.59,0,.04.02.08.03-.05.03.09.02.36.01.43.03-.04.03.11.09.49.1.07,0,.15-.01.22-.03.04,0,.08,0,.12,0h.31c-.05.04.23.05.32.08.45,0,.38-.07.49-.11-.38-.02-.43-.08-.86-.09-.01-.03.11-.04-.17-.04-.24,0,.06.03-.1.03-.24-.01-.24-.05-.49-.06v-.02s0-.02.05-.02c-.09,0-.18-.01-.27-.03.09-.02.29-.03.27-.06-.07,0-.14-.01-.22-.01.03-.02.2-.02.22-.04-.18,0-.18,0-.17.02-.1,0-.14,0-.17,0-.14-.04.27-.09,0-.13.04,0,.2.01.22,0,.11,0,.1.03.1.04.65.03.87.1.85.18.17.02.58.02.75.05.06.03.19.05.32.07.28,0-.13-.04.22-.03-.09-.02.11-.02.17-.04-.02,0,.04-.01.05-.02.17,0,.2,0,.32.01-.01.01-.14,0-.22.02-.02.06.34.09.86.08.03-.02-.01-.04-.05-.06h.06s-.05-.02-.06-.02h-.06c-.08,0-.2,0-.22,0h.03s-.08,0-.08,0c-.03-.03.46-.01.64-.03,0,0,0-.01.01-.02v-.02s.03-.04.36-.04c-.08-.02.24-.03.49-.03.03.02,0,.02.05.03.06.02.24.02.32.03.02,0,.03,0,.05.01h.03s.07.03.24.02c-.19.01.1.03-.1.05-.37,0-.13,0-.32.02-.19,0,0-.02-.22-.02-.13.04-.7.09-.32.13.38,0,.46-.03.49-.06.26,0,.46.02.75,0h.08s.03,0,.03,0c.05,0,.08,0,.1.02h-.03s.08,0,.08,0c-.01,0-.05,0-.05,0,.05,0,.09,0,.17,0h-.03s.08.02.08.02c.04,0-.15.02,0,.03.04,0,.06-.01.05-.03h-.02s-.03-.01-.03-.01c.04,0,.05,0,.05,0h.08s-.1,0-.1,0c-.04,0-.08,0-.12,0h0s.1-.02.14-.02c.09,0,.19,0,.29,0h-.03c.17-.02.32-.01.54,0v.02h-.1s-.06,0-.06,0c-.16,0-.11,0-.04.01h.06s.02,0,.03,0c-.05,0,.03,0,.03,0h.08c.14,0,.2,0,.17-.02.19,0,.35.02.64.02-.04.03.08.04.05.06-.11,0-.29,0-.32.02h-.08s.03,0,.03,0h.05c.31.03.52.11,1.07.08h.08s.08,0,.08,0c.06,0,.11,0,.17,0h.05s.05,0,.05,0c.06,0,.11.02.17,0-.08,0-.09,0-.17,0h.03s-.08-.01-.08-.01c.12-.02.31-.03.32-.06.23,0,.59.02.8,0-.06.03.15.03.22.04.27-.02.37.02.64,0,.14.02.06.03.27.04.01.02-.09.03,0,.04.15,0,.29.01.43.05h.03s.17,0,.17,0h-.08s.05-.02.05-.03c.12,0,.18.02.32.02.04,0,.07,0,.11,0h.15s.06-.01.06-.01c.1,0,.09.03.27.03h-.03s.08.02.08.02c-.01,0-.05,0-.05,0,.14.02.29.03.43.04h-.08c.14,0,.14.02.17.03h.03c.08,0,.21,0,.32,0-.02,0-.05.01-.07,0h.28c.21-.01.36-.04.59-.04.01,0-.06,0-.05-.02.33,0,.03.02.43.02-.09,0-.18-.02-.27-.04.06-.03.43-.03.54-.06.4,0,.55.02.81,0-.04.02.24.02.1.03.1,0,.1,0,.27,0,.05.02.19.04.43.04h-.03c.09,0,.17,0,.19-.01.04,0,.09,0,.13,0h-.03c.12,0,.08-.02.22-.02.1.02.38.02.43.05.18-.02.32,0,.59-.02.18,0,.12.02.27.02.27,0,.4-.03.59-.05-.12,0-.22-.02-.37-.03.32,0,.54-.03.8-.05-.11-.02-.22-.04-.33-.04l-.2-.02c-.23-.02-.42-.05-.38-.09-.05,0-.1-.02-.15-.02l-.2-.02h-.09c.06-.03.38-.03.54-.02-.17,0-.01-.04-.27-.04-.11.01.06.02-.1.03-.09,0-.22-.02-.27,0-.23-.02-.38-.03-.49-.07h.1s.06,0,.06,0c.17,0,.27-.04.54-.02.04,0,.05,0,.05-.02.22.01.33,0,.54,0,.12,0,.08.03.37.03-.04.02.04.04-.17.03-.03.02.15.04.05.05.01,0,.18,0,.22,0-.08-.01.01-.01.13-.01h.12s.12,0,.12,0c0,.05.33.06.7.07h.28c.23.01.45.02.58.04.18,0,.41-.01.43-.03-.31,0-.12-.05-.37-.06.1-.01.24-.02.49-.02-.01.05.41.05.54.09.49.02.73-.03,1.12-.02h0c.17-.01-.09.03.22.02-.04.03.06.04.1.06.19,0,.41,0,.64.02.1,0-.03,0,0,.02.24,0,.34-.01.32.02h.75s-.03.01-.03.01c.08,0,.14,0,.22,0h-.03c.12-.03.45,0,.59-.03-.08-.05-.29-.09-.27-.15.35,0,.6,0,.7.03.28,0,.47,0,.64-.02.41.02-.04.06,0,.1.2.02.6.04.85,0,.5.02.41.09.97.1.01-.04.23-.1-.1-.11.01-.01.18-.02.22-.03.17,0,.13,0,.22,0,0,0,0,0,.01,0h.02s.07-.03.29-.03c.05.02.05.04.32.04-.06,0-.11.01-.17,0,.03,0,.07.01.1,0h-.03s.17,0,.17,0h-.08c.11-.02.21-.03.32-.02-.03,0-.05,0-.05-.02.14,0,.2.02.22,0,.12,0,.03.03.05.03.09.01.12,0,.27.02.01.01.1.02-.05.02.22.01.45.04.22.07.09,0,.24.02.32.03h-.03s.09,0,.17.01h-.03s.17,0,.17,0c.12,0,.05.03.22.03-.19,0,0,.02,0,.04,0,0,0,.01,0,.02h.31c.19-.01.09-.04.22-.06.27,0,.35,0,.54,0,.37,0,.81,0,1.12,0-.03,0,.01.02.1.02.19,0,.04-.02.17-.02.22,0-.03.05.37.03-.13,0-.15.02-.22.04h1.34s.07-.02.11-.03c.06,0,.11,0,.17,0,.38-.04,1.03-.05,1.24-.1.4-.01.6-.05.97-.06.04-.01-.1,0-.1-.02-.71,0-.82.04-1.34.05.05.02-.54.02-.59.05-.04,0-.09,0-.1,0h.06s-.06-.01-.06-.01c-.05-.02.08-.01.05-.02h.22s-.06,0-.05,0c.42-.02,1.1-.02,1.07-.09-.41-.02-.74-.05-1.18-.06-.05,0-.04,0-.05,0-.01-.03-.26-.03-.37-.05.01-.02.13-.03.27-.03-.01,0-.05,0-.05,0h.08s-.03,0-.03,0c.06-.01.33,0,.37,0,.07,0,.05,0,.02,0h-.04s-.03,0,0,0h.12-.03c.17,0,.37,0,.43.02h.03c.09-.02.27-.02.49-.02-.03.02-.06.02.05.03h-.08s.08,0,.08,0c-.33.05.43.07.64.1.13,0,.11,0,.27,0-.05.02.05.02.1.03.35,0,.43-.05.64-.07.17,0,.27,0,.32-.02.64,0,.86.04,1.26.07v.21l-.58.02h.23s.35.01.35.01v.08s0,0,0,0v.91h0v.27c-.14,0-.28-.01-.42,0h-.23c-.1,0,.09-.02-.17-.02.15-.04.17-.08-.27-.09-.22,0-.57,0-.86,0-.15,0-.29-.03-.59-.03.29-.03-.05-.03,0-.08-.32-.02-.63-.03-.95-.04h-1.11c-.15.02-.15.06-.31.08-.12,0-.15-.02-.32-.02-.28.02-.42.04-.54.08.04,0,.09.01.17.02.36,0,.83-.04.97,0,.04.02-.18,0-.17.02.09.07-.79.09-.97.15.04.01.09.03.22.04-.29,0-.64.02-.59.05h-.28c-.13,0-.27,0-.31-.02,0-.01.09-.02.17-.02-.12-.03-.15-.07-.43-.09.05-.02.1-.04.32-.05.08-.08-.65-.11-1.02-.16-.19,0-.24.02-.32.03.23.02.56.02.49.07-.43.03-1.01.04-1.17.09-.27,0-.38.02-.37.04-.32.02-.44.05-.64.08.13.03.7.05.49.09.09.02.27.03.37.05-.2.04-.14.09-.27.12.03,0,.11,0,.1.02-.1,0-.5-.01-.54,0-.33-.01-1.01-.02-1.17,0-.41,0-.64,0-1.07-.02.03-.04-.28-.04-.32-.07-.12,0-.37.03-.43,0-.05,0-.08,0-.1.02-.1,0-.21,0-.31,0h-.27c-.05-.02-.05-.05-.27-.05-.23,0-.28.01-.43.02.08.04-.13.03-.17.06-.08,0-.15-.02-.22-.03h.08s-.08,0-.08,0c-.04-.03-.17,0-.22,0-.09,0-.13-.02-.37-.03-.13,0-.38,0-.37-.03-.13,0-.12,0-.27,0-.18-.02-.18-.05-.37-.06-.41,0-.47-.02-.81-.03.03,0-.04-.01-.05-.02-.35-.02-.61-.07-1.02-.07.14-.02-.57-.08-.64-.02h-.08s-.03,0-.03,0c-.13,0-.18.02-.37.03-.08,0,.03,0,0-.02-.23,0-.42.03-.64,0-.06,0-.04,0-.05.02-.13,0-.26,0-.43,0-.15-.05-.1-.06-.05-.11-.1-.02-.22,0-.37,0,.18-.02-.31-.06-.37-.06-.14,0-.17.01-.17.03v.02s-.02.02-.1.03c-.18,0-.24,0-.37-.02-.27.02-.54.03-.81.02,0,.03-.5,0-.54.03-.13,0-.1-.03-.32-.05h.08s-.03,0-.03,0c.04,0,.14-.03-.05-.03v.03h-.08s.03,0,.03,0c-.42,0-.42-.04-.91-.04-.26.03-.64.04-.75.08-.21,0-.43-.01-.64-.05-.54,0-.6.03-.97.04-.12,0-.05.02-.17.02-.18,0-.08-.02-.22-.02-.09,0,.04.02-.1.03-.05,0-.15,0-.17,0-.08,0-.12.01-.1.03-.2,0-.33,0-.59,0-.04-.02-.08-.03.05-.03-.09-.02-.36-.01-.43-.03.04-.03-.12-.09-.49-.1-.07,0-.15.01-.22.04-.04,0-.08,0-.12,0h-.31c.05-.04-.23-.05-.32-.08-.45,0-.38.07-.49.11.38.02.44.08.86.09.01.03-.12.04.17.04.24,0-.06-.03.1-.03.24.01.24.05.49.06v.02s0,.02-.05.02c.1,0,.19.02.27.03-.09.02-.29.03-.27.06.04,0,.11,0,.22,0-.03.02-.21.02-.22.04.18,0,.18,0,.17-.02.1,0,.14,0,.17,0,.14.04-.27.09,0,.13-.04,0-.21-.01-.22,0-.11,0-.1-.03-.1-.04-.65-.03-.87-.1-.85-.18-.17-.02-.58-.02-.75-.05-.1-.03-.21-.06-.32-.07-.28,0,.13.04-.22.03.09.02-.12.02-.17.05.03,0-.04.01-.05.02-.17,0-.21,0-.32,0,.01-.01.14,0,.22-.02.03-.06-.35-.09-.86-.08-.03.02.01.04.05.06h-.06s.05.02.06.02h.06c.08,0,.2,0,.22,0h-.03s.08,0,.08,0c.03.03-.46.01-.64.03,0,0,0,.01-.01.02v.02s-.03.04-.36.04c.08.02-.24.04-.49.03-.03-.02,0-.02-.05-.03-.06-.02-.24-.02-.32-.03-.02,0-.03,0-.05-.01h-.03s-.07-.03-.24-.02c.19-.01-.1-.03.1-.05.37,0,.13,0,.32-.02.19,0,0,.02.22.02.13-.04.7-.09.32-.13-.38,0-.46.03-.49.06-.26,0-.46-.02-.75,0h-.08s-.03,0-.03,0c-.05,0-.08,0-.1-.02h.03s-.08,0-.08,0c.01,0,.05,0,.05,0-.05,0-.09,0-.17,0h.03s-.08-.02-.08-.02c-.04,0,.15-.02,0-.03-.04,0-.06.01-.05.03h.03s.03.01.03.01c-.04,0-.05,0-.05,0h-.08s.1,0,.1,0c.05,0,.1,0,.12,0v.02s-.1,0-.14,0c-.09,0-.19,0-.29,0h.03c-.17.02-.32.01-.54,0v-.02h.1s.06,0,.06,0c.16,0,.11,0,.04-.01h-.06s-.02,0-.03,0c.05,0-.03,0-.03,0h-.08c-.14,0-.2,0-.17.02-.19,0-.35-.02-.64-.02.04-.03-.08-.04-.05-.06.11,0,.29,0,.32-.02h.08s-.03,0-.03,0h-.05c-.31-.03-.52-.11-1.07-.08h-.08s-.08,0-.08,0c-.06,0-.11,0-.17,0h-.05s-.05,0-.05,0c-.06,0-.11-.02-.17,0,.08,0,.09,0,.17,0h-.02s.08.01.08.01c-.11.02-.31.03-.32.06-.27-.01-.54-.01-.8,0,.06-.03-.15-.03-.22-.04-.27.02-.37-.02-.64,0-.14-.02-.06-.03-.27-.04-.01-.02.09-.03,0-.04-.15,0-.29-.01-.43-.05h-.03s-.17,0-.17,0h.08s-.05.02-.05.03c-.11,0-.18-.02-.32-.02-.04,0-.07,0-.11,0h-.15s-.06.01-.06.01c-.1,0-.09-.03-.27-.03h.03s-.08-.02-.08-.02c.01,0,.05,0,.05,0-.14-.02-.29-.03-.43-.04h.08c-.14,0-.14-.02-.17-.03h-.02c-.08,0-.2,0-.32,0,.02,0,.04,0,.06,0h-.29c-.2.02-.35.04-.58.04-.01,0,.06,0,.05.02-.33,0-.02-.02-.43-.02.11.01.22.03.27.04-.06.03-.43.03-.54.06-.4,0-.55-.02-.81,0,.04-.02-.24-.02-.1-.03-.1,0-.1,0-.27,0-.05-.02-.19-.04-.43-.04h.02c-.09,0-.17,0-.19,0-.04,0-.09,0-.13,0h.02c-.11,0-.08.02-.22.02-.1-.02-.38-.02-.43-.05-.18.02-.32,0-.59.02-.18,0-.11-.02-.27-.02-.27,0-.4.03-.59.04.11,0,.22.02.37.03-.32,0-.54.03-.8.04.07.02.2.03.33.04l.2.02c.23.02.42.05.38.09.03,0,.08.01.15.02l.2.02h.09c-.06.03-.38.03-.54.02.17,0,.01.05.27.05.11-.01-.06-.02.1-.03.09,0,.22.02.27,0,.23.02.38.03.49.07h-.1s-.06,0-.06,0c-.17,0-.27.04-.54.02-.04,0-.05,0-.05.02-.22-.01-.33,0-.54,0-.11,0-.08-.03-.37-.03.04-.02-.04-.04.17-.03.03-.02-.15-.04-.05-.05-.01,0-.18,0-.22,0,.08.01-.01.01-.13.01h-.12s-.08,0-.11,0c0-.05-.33-.06-.7-.07h-.28c-.19-.01-.39-.02-.58-.04-.18,0-.41.01-.43.04.31,0,.11.05.37.06-.1.01-.24.02-.49.02.01-.05-.41-.05-.54-.09-.49-.02-.73.03-1.12.02v.02c-.17,0,.09-.05-.22-.04.04-.03-.06-.04-.1-.06-.19,0-.41,0-.64-.02-.1,0,.03,0,0-.02-.24,0-.34.01-.32-.02h-.75s.02-.01.02-.01c-.08,0-.14,0-.22,0h.03c-.11.03-.45,0-.59.03.08.05.29.09.27.15-.35,0-.6,0-.7-.03-.28,0-.47,0-.64.02-.41-.02.04-.06,0-.1-.28-.03-.57-.03-.86,0-.5-.02-.41-.09-.97-.1-.01.04-.23.1.1.11-.01.01-.18.02-.22.03-.17,0-.13,0-.22,0,0,0,0,0-.01,0h-.02s-.07.03-.29.03c-.05-.02-.05-.04-.32-.04.06,0,.11-.01.17,0-.03,0-.07-.01-.1,0h.03s-.17,0-.17,0h.08c-.11.02-.21.03-.32.02.03,0,.05,0,.05.02-.14,0-.2-.02-.22,0-.11,0-.02-.02-.05-.03-.09-.01-.12,0-.27-.02-.01-.01-.1-.02.05-.02-.22-.01-.45-.04-.22-.07-.09,0-.24-.02-.32-.03h.03c-.05,0-.09,0-.17-.01h.03s-.17,0-.17,0c-.11,0-.05-.03-.22-.03.19,0,0-.02,0-.03,0,0,0-.01,0-.02h-.32c-.18.01-.08.04-.2.06-.18-.01-.36,0-.54,0-.37,0-.8,0-1.12,0,.03,0-.01-.02-.1-.02-.19,0-.04.02-.17.02-.22,0,.03-.05-.37-.03.13,0,.15-.02.22-.04h-1.34Z"/>
  <path class="st0" d="M4.98,1.75s-.07.02-.1.03c-.08,0-.15,0-.17,0-.38.03-1.03.04-1.24.1-.4.01-.6.04-.97.06-.04.01.1,0,.1.02.71,0,.82-.04,1.34-.05-.05-.02.54-.02.59-.04.04,0,.09,0,.1,0h-.06s.06.01.06.01c.05.02-.08.01-.05.02h-.22s.06,0,.05,0c-.42.02-1.1.02-1.07.09.41.02.74.05,1.18.06.05,0,.04,0,.05,0,.01.03.26.03.37.05-.01.02-.13.03-.27.03.01,0,.05,0,.05,0h-.08s.03,0,.03,0c-.06.01-.33,0-.37,0-.07,0-.05,0-.02,0h.04s.03,0,0,0h-.12.03c-.17,0-.37,0-.43-.02h-.03c-.09.02-.27.02-.49.02.03-.02.06-.02-.05-.03h.08s-.08,0-.08,0c.33-.05-.43-.07-.64-.1-.13,0-.11,0-.27,0,.05-.02-.05-.02-.1-.03-.35,0-.43.05-.64.07-.17,0-.27,0-.32.02C.63,2.04.41,2,0,1.98v-.21c.19,0,.38-.01.56-.02h-.21s-.35-.01-.35-.01V.48c.19.01.41.02.65,0,.1,0-.09.02.17.02-.15.04-.17.08.27.09.22,0,.57,0,.86,0,.15,0,.29.03.59.03-.29.03.05.03,0,.08.33.02.64.03.98.04h1.07c.15-.02.16-.06.32-.08.11,0,.15.02.32.02.28-.02.42-.05.54-.08-.06-.01-.11-.02-.17-.01-.36,0-.83.04-.97,0-.04-.02.18,0,.16-.02-.09-.07.79-.09.97-.15-.07-.02-.14-.03-.21-.04.29,0,.64-.02.59-.05h.28c.14,0,.27,0,.31.02,0,.01-.09.02-.16.02.11.03.15.07.43.09-.05.02-.1.04-.32.05-.08.08.65.11,1.02.16.19,0,.24-.02.32-.03-.23-.02-.56-.02-.49-.07.43-.03,1.01-.04,1.18-.09.27,0,.38-.02.37-.04.32-.02.44-.05.64-.08-.13-.03-.7-.04-.48-.09-.09-.02-.27-.03-.37-.05.2-.04.14-.09.27-.12-.03,0-.11,0-.1-.02.1,0,.5.01.54,0,.33.01,1.01.02,1.18,0,.41,0,.64,0,1.07.02-.02.04.28.04.32.07.11,0,.37-.03.43,0,.03,0,.07,0,.1-.02.08,0,.19,0,.31,0h.27c.05.02.05.05.27.05.23,0,.28-.01.43-.02-.08-.03.13-.03.17-.06.08,0,.15.02.22.03h-.08s.08,0,.08,0c.04.03.17,0,.22,0,.09,0,.13.02.37.03.13,0,.38,0,.37.03.13,0,.12-.01.27,0,.18.02.18.05.37.06.41,0,.47.02.81.03-.03,0,.04.01.05.02.35.02.61.07,1.02.07-.14.02.57.08.64.02h.08s.02,0,.02,0c.13,0,.18-.02.37-.03.08,0-.02,0,0,.02.23,0,.42-.03.64,0,.06,0,.04,0,.05-.02.13,0,.26,0,.43,0,.15.05.1.06.05.11.1.02.22,0,.37,0-.18.02.31.06.37.06.14,0,.17-.01.17-.03v-.02s.02-.02.1-.03c.18,0,.24,0,.37.02.19-.02.56-.04.81-.02,0-.03.5,0,.54-.03.13,0,.1.03.32.04h-.08s.03,0,.03,0c-.04,0-.14.03.05.03v-.02h.08s-.03-.01-.03-.01c.42,0,.42.04.91.03.25-.03.64-.04.75-.08.33,0,.51.02.64.05.54,0,.6-.03.97-.04.11,0,.05-.02.17-.02.18,0,.08.02.22.02.09,0-.04-.02.1-.03.05,0,.15,0,.17,0,.08,0,.11-.01.1-.03.2,0,.33,0,.59,0,.04.02.08.03-.05.03.09.02.36.01.43.03-.04.03.11.09.49.1.07,0,.15-.01.22-.03.04,0,.08,0,.12,0h.31c-.05.04.23.05.32.08.45,0,.38-.07.49-.11-.38-.02-.43-.08-.86-.09-.01-.03.11-.04-.17-.04-.24,0,.06.03-.1.03-.24-.01-.24-.05-.49-.06v-.02s0-.02.05-.02c-.09,0-.18-.01-.27-.03.09-.02.29-.03.27-.06-.07,0-.14-.01-.22-.01.03-.02.2-.02.22-.04-.18,0-.18,0-.17.02-.1,0-.14,0-.17,0C28.07.09,28.48.04,28.21,0,28.25,0,28.41.01,28.43,0c.11,0,.1.03.1.04.65.03.87.1.85.18.17.02.58.02.75.05.06.03.19.05.32.07.28,0-.13-.04.22-.03-.09-.02.11-.02.17-.04-.02,0,.04-.01.05-.02.17,0,.2,0,.32.01-.01.01-.14,0-.22.02-.02.06.34.09.86.08.03-.02-.01-.04-.05-.06h.06s-.05-.02-.06-.02h-.06c-.08,0-.2,0-.22,0h.03s-.08,0-.08,0c-.03-.03.46-.01.64-.03,0,0,0-.01.01-.02v-.02s.03-.04.36-.04c-.08-.02.24-.03.49-.03.03.02,0,.02.05.03.06.02.24.02.32.03.02,0,.03,0,.05.01h.03s.07.03.24.02c-.19.01.1.03-.1.05-.37,0-.13,0-.32.02-.19,0,0-.02-.22-.02-.13.04-.7.09-.32.13.38,0,.46-.03.49-.06.26,0,.46.02.75,0h.08s.03,0,.03,0c.05,0,.08,0,.1.02h-.03s.08,0,.08,0c-.01,0-.05,0-.05,0,.05,0,.09,0,.17,0h-.03s.08.02.08.02c.04,0-.15.02,0,.03.04,0,.06-.01.05-.03h-.02s-.03-.01-.03-.01c.04,0,.05,0,.05,0h.08s-.1,0-.1,0c-.04,0-.08,0-.12,0h0s.1-.02.14-.02c.09,0,.19,0,.29,0h-.03c.17-.02.32-.01.54,0v.02h-.1s-.06,0-.06,0c-.16,0-.11,0-.04.01h.06s.02,0,.03,0c-.05,0,.03,0,.03,0h.08c.14,0,.2,0,.17-.02.19,0,.35.02.64.02-.04.03.08.04.05.06-.11,0-.29,0-.32.02h-.08s.03,0,.03,0h.05c.31.03.52.11,1.07.08h.08s.08,0,.08,0c.06,0,.11,0,.17,0h.05s.05,0,.05,0c.06,0,.11.02.17,0-.08,0-.09,0-.17,0h.03s-.08-.01-.08-.01c.12-.02.31-.03.32-.06.23,0,.59.02.8,0-.06.03.15.03.22.04.27-.02.37.02.64,0,.14.02.06.03.27.04.01.02-.09.03,0,.04.15,0,.29.01.43.05h.03s.17,0,.17,0h-.08s.05-.02.05-.03c.12,0,.18.02.32.02.04,0,.07,0,.11,0h.15s.06-.01.06-.01c.1,0,.09.03.27.03h-.03s.08.02.08.02c-.01,0-.05,0-.05,0,.14.02.29.03.43.04h-.08c.14,0,.14.02.17.03h.03c.08,0,.21,0,.32,0-.02,0-.05.01-.07,0h.28c.21-.01.36-.04.59-.04.01,0-.06,0-.05-.02.33,0,.03.02.43.02-.09,0-.18-.02-.27-.04.06-.03.43-.03.54-.06.4,0,.55.02.81,0-.04.02.24.02.1.03.1,0,.1,0,.27,0,.05.02.19.04.43.04h-.03c.09,0,.17,0,.19-.01.04,0,.09,0,.13,0h-.03c.12,0,.08-.02.22-.02.1.02.38.02.43.05.18-.02.32,0,.59-.02.18,0,.12.02.27.02.27,0,.4-.03.59-.05-.12,0-.22-.02-.37-.03.32,0,.54-.03.8-.05-.11-.02-.22-.04-.33-.04l-.2-.02c-.23-.02-.42-.05-.38-.09-.05,0-.1-.02-.15-.02l-.2-.02h-.09c.06-.03.38-.03.54-.02-.17,0-.01-.04-.27-.04-.11.01.06.02-.1.03-.09,0-.22-.02-.27,0-.23-.02-.38-.03-.49-.07h.1s.06,0,.06,0c.17,0,.27-.04.54-.02.04,0,.05,0,.05-.02.22.01.33,0,.54,0,.12,0,.08.03.37.03-.04.02.04.04-.17.03-.03.02.15.04.05.05.01,0,.18,0,.22,0-.08-.01.01-.01.13-.01h.12s.12,0,.12,0c0,.05.33.06.7.07h.28c.23.01.45.02.58.04.18,0,.41-.01.43-.03-.31,0-.12-.05-.37-.06.1-.01.24-.02.49-.02-.01.05.41.05.54.09.49.02.73-.03,1.12-.02h0c.17-.01-.09.03.22.02-.04.03.06.04.1.06.19,0,.41,0,.64.02.1,0-.03,0,0,.02.24,0,.34-.01.32.02h.75s-.03.01-.03.01c.08,0,.14,0,.22,0h-.03c.12-.03.45,0,.59-.03-.08-.05-.29-.09-.27-.15.35,0,.6,0,.7.03.28,0,.47,0,.64-.02.41.02-.04.06,0,.1.2.02.6.04.85,0,.5.02.41.09.97.1.01-.04.23-.1-.1-.11.01-.01.18-.02.22-.03.17,0,.13,0,.22,0,0,0,0,0,.01,0h.02s.07-.03.29-.03c.05.02.05.04.32.04-.06,0-.11.01-.17,0,.03,0,.07.01.1,0h-.03s.17,0,.17,0h-.08c.11-.02.21-.03.32-.02-.03,0-.05,0-.05-.02.14,0,.2.02.22,0,.12,0,.03.03.05.03.09.01.12,0,.27.02.01.01.1.02-.05.02.22.01.45.04.22.07.09,0,.24.02.32.03h-.03s.09,0,.17.01h-.03s.17,0,.17,0c.12,0,.05.03.22.03-.19,0,0,.02,0,.04,0,0,0,.01,0,.02h.31c.19-.01.09-.04.22-.06.27,0,.35,0,.54,0,.37,0,.81,0,1.12,0-.03,0,.01.02.1.02.19,0,.04-.02.17-.02.22,0-.03.05.37.03-.13,0-.15.02-.22.04h1.34s.07-.02.11-.03c.06,0,.11,0,.17,0,.38-.04,1.03-.05,1.24-.1.4-.01.6-.05.97-.06.04-.01-.1,0-.1-.02-.71,0-.82.04-1.34.05.05.02-.54.02-.59.05-.04,0-.09,0-.1,0h.06s-.06-.01-.06-.01c-.05-.02.08-.01.05-.02h.22s-.06,0-.05,0c.42-.02,1.1-.02,1.07-.09-.41-.02-.74-.05-1.18-.06-.05,0-.04,0-.05,0-.01-.03-.26-.03-.37-.05.01-.02.13-.03.27-.03-.01,0-.05,0-.05,0h.08s-.03,0-.03,0c.06-.01.33,0,.37,0,.07,0,.05,0,.02,0h-.04s-.03,0,0,0h.12-.03c.17,0,.37,0,.43.02h.03c.09-.02.27-.02.49-.02-.03.02-.06.02.05.03h-.08s.08,0,.08,0c-.33.05.43.07.64.1.13,0,.11,0,.27,0-.05.02.05.02.1.03.35,0,.43-.05.64-.07.17,0,.27,0,.32-.02.64,0,.86.04,1.26.07v.21l-.58.02h.23s.35.01.35.01v.08s0,0,0,0v.91h0v.27c-.14,0-.28-.01-.42,0h-.23c-.1,0,.09-.02-.17-.02.15-.04.17-.08-.27-.09-.22,0-.57,0-.86,0-.15,0-.29-.03-.59-.03.29-.03-.05-.03,0-.08-.32-.02-.63-.03-.95-.04h-1.11c-.15.02-.15.06-.31.08-.12,0-.15-.02-.32-.02-.28.02-.42.04-.54.08.04,0,.09.01.17.02.36,0,.83-.04.97,0,.04.02-.18,0-.17.02.09.07-.79.09-.97.15.04.01.09.03.22.04-.29,0-.64.02-.59.05h-.28c-.13,0-.27,0-.31-.02,0-.01.09-.02.17-.02-.12-.03-.15-.07-.43-.09.05-.02.1-.04.32-.05.08-.08-.65-.11-1.02-.16-.19,0-.24.02-.32.03.23.02.56.02.49.07-.43.03-1.01.04-1.17.09-.27,0-.38.02-.37.04-.32.02-.44.05-.64.08.13.03.7.05.49.09.09.02.27.03.37.05-.2.04-.14.09-.27.12.03,0,.11,0,.1.02-.1,0-.5-.01-.54,0-.33-.01-1.01-.02-1.17,0-.41,0-.64,0-1.07-.02.03-.04-.28-.04-.32-.07-.12,0-.37.03-.43,0-.05,0-.08,0-.1.02-.1,0-.21,0-.31,0h-.27c-.05-.02-.05-.05-.27-.05-.23,0-.28.01-.43.02.08.04-.13.03-.17.06-.08,0-.15-.02-.22-.03h.08s-.08,0-.08,0c-.04-.03-.17,0-.22,0-.09,0-.13-.02-.37-.03-.13,0-.38,0-.37-.03-.13,0-.12,0-.27,0-.18-.02-.18-.05-.37-.06-.41,0-.47-.02-.81-.03.03,0-.04-.01-.05-.02-.35-.02-.61-.07-1.02-.07.14-.02-.57-.08-.64-.02h-.08s-.03,0-.03,0c-.13,0-.18.02-.37.03-.08,0,.03,0,0-.02-.23,0-.42.03-.64,0-.06,0-.04,0-.05.02-.13,0-.26,0-.43,0-.15-.05-.1-.06-.05-.11-.1-.02-.22,0-.37,0,.18-.02-.31-.06-.37-.06-.14,0-.17.01-.17.03v.02s-.02.02-.1.03c-.18,0-.24,0-.37-.02-.27.02-.54.03-.81.02,0,.03-.5,0-.54.03-.13,0-.1-.03-.32-.05h.08s-.03,0-.03,0c.04,0,.14-.03-.05-.03v.03h-.08s.03,0,.03,0c-.42,0-.42-.04-.91-.04-.26.03-.64.04-.75.08-.21,0-.43-.01-.64-.05-.54,0-.6.03-.97.04-.12,0-.05.02-.17.02-.18,0-.08-.02-.22-.02-.09,0,.04.02-.1.03-.05,0-.15,0-.17,0-.08,0-.12.01-.1.03-.2,0-.33,0-.59,0-.04-.02-.08-.03.05-.03-.09-.02-.36-.01-.43-.03.04-.03-.12-.09-.49-.1-.07,0-.15.01-.22.04-.04,0-.08,0-.12,0h-.31c.05-.04-.23-.05-.32-.08-.45,0-.38.07-.49.11.38.02.44.08.86.09.01.03-.12.04.17.04.24,0-.06-.03.1-.03.24.01.24.05.49.06v.02s0,.02-.05.02c.1,0,.19.02.27.03-.09.02-.29.03-.27.06.04,0,.11,0,.22,0-.03.02-.21.02-.22.04.18,0,.18,0,.17-.02.1,0,.14,0,.17,0,.14.04-.27.09,0,.13-.04,0-.21-.01-.22,0-.11,0-.1-.03-.1-.04-.65-.03-.87-.1-.85-.18-.17-.02-.58-.02-.75-.05-.1-.03-.21-.06-.32-.07-.28,0,.13.04-.22.03.09.02-.12.02-.17.05.03,0-.04.01-.05.02-.17,0-.21,0-.32,0,.01-.01.14,0,.22-.02.03-.06-.35-.09-.86-.08-.03.02.01.04.05.06h-.06s.05.02.06.02h.06c.08,0,.2,0,.22,0h-.03s.08,0,.08,0c.03.03-.46.01-.64.03,0,0,0,.01-.01.02v.02s-.03.04-.36.04c.08.02-.24.04-.49.03-.03-.02,0-.02-.05-.03-.06-.02-.24-.02-.32-.03-.02,0-.03,0-.05-.01h-.03s-.07-.03-.24-.02c.19-.01-.1-.03.1-.05.37,0,.13,0,.32-.02.19,0,0,.02.22.02.13-.04.7-.09.32-.13-.38,0-.46.03-.49.06-.26,0-.46-.02-.75,0h-.08s-.03,0-.03,0c-.05,0-.08,0-.1-.02h.03s-.08,0-.08,0c.01,0,.05,0,.05,0-.05,0-.09,0-.17,0h.03s-.08-.02-.08-.02c-.04,0,.15-.02,0-.03-.04,0-.06.01-.05.03h.03s.03.01.03.01c-.04,0-.05,0-.05,0h-.08s.1,0,.1,0c.05,0,.1,0,.12,0v.02s-.1,0-.14,0c-.09,0-.19,0-.29,0h.03c-.17.02-.32.01-.54,0v-.02h.1s.06,0,.06,0c.16,0,.11,0,.04-.01h-.06s-.02,0-.03,0c.05,0-.03,0-.03,0h-.08c-.14,0-.2,0-.17.02-.19,0-.35-.02-.64-.02.04-.03-.08-.04-.05-.06.11,0,.29,0,.32-.02h.08s-.03,0-.03,0h-.05c-.31-.03-.52-.11-1.07-.08h-.08s-.08,0-.08,0c-.06,0-.11,0-.17,0h-.05s-.05,0-.05,0c-.06,0-.11-.02-.17,0,.08,0,.09,0,.17,0h-.02s.08.01.08.01c-.11.02-.31.03-.32.06-.27-.01-.54-.01-.8,0,.06-.03-.15-.03-.22-.04-.27.02-.37-.02-.64,0-.14-.02-.06-.03-.27-.04-.01-.02.09-.03,0-.04-.15,0-.29-.01-.43-.05h-.03s-.17,0-.17,0h.08s-.05.02-.05.03c-.11,0-.18-.02-.32-.02-.04,0-.07,0-.11,0h-.15s-.06.01-.06.01c-.1,0-.09-.03-.27-.03h.03s-.08-.02-.08-.02c.01,0,.05,0,.05,0-.14-.02-.29-.03-.43-.04h.08c-.14,0-.14-.02-.17-.03h-.02c-.08,0-.2,0-.32,0,.02,0,.04,0,.06,0h-.29c-.2.02-.35.04-.58.04-.01,0,.06,0,.05.02-.33,0-.02-.02-.43-.02.11.01.22.03.27.04-.06.03-.43.03-.54.06-.4,0-.55-.02-.81,0,.04-.02-.24-.02-.1-.03-.1,0-.1,0-.27,0-.05-.02-.19-.04-.43-.04h.02c-.09,0-.17,0-.19,0-.04,0-.09,0-.13,0h.02c-.11,0-.08.02-.22.02-.1-.02-.38-.02-.43-.05-.18.02-.32,0-.59.02-.18,0-.11-.02-.27-.02-.27,0-.4.03-.59.04.11,0,.22.02.37.03-.32,0-.54.03-.8.04.07.02.2.03.33.04l.2.02c.23.02.42.05.38.09.03,0,.08.01.15.02l.2.02h.09c-.06.03-.38.03-.54.02.17,0,.01.05.27.05.11-.01-.06-.02.1-.03.09,0,.22.02.27,0,.23.02.38.03.49.07h-.1s-.06,0-.06,0c-.17,0-.27.04-.54.02-.04,0-.05,0-.05.02-.22-.01-.33,0-.54,0-.11,0-.08-.03-.37-.03.04-.02-.04-.04.17-.03.03-.02-.15-.04-.05-.05-.01,0-.18,0-.22,0,.08.01-.01.01-.13.01h-.12s-.08,0-.11,0c0-.05-.33-.06-.7-.07h-.28c-.19-.01-.39-.02-.58-.04-.18,0-.41.01-.43.04.31,0,.11.05.37.06-.1.01-.24.02-.49.02.01-.05-.41-.05-.54-.09-.49-.02-.73.03-1.12.02v.02c-.17,0,.09-.05-.22-.04.04-.03-.06-.04-.1-.06-.19,0-.41,0-.64-.02-.1,0,.03,0,0-.02-.24,0-.34.01-.32-.02h-.75s.02-.01.02-.01c-.08,0-.14,0-.22,0h.03c-.11.03-.45,0-.59.03.08.05.29.09.27.15-.35,0-.6,0-.7-.03-.28,0-.47,0-.64.02-.41-.02.04-.06,0-.1-.28-.03-.57-.03-.86,0-.5-.02-.41-.09-.97-.1-.01.04-.23.1.1.11-.01.01-.18.02-.22.03-.17,0-.13,0-.22,0,0,0,0,0-.01,0h-.02s-.07.03-.29.03c-.05-.02-.05-.04-.32-.04.06,0,.11-.01.17,0-.03,0-.07-.01-.1,0h.03s-.17,0-.17,0h.08c-.11.02-.21.03-.32.02.03,0,.05,0,.05.02-.14,0-.2-.02-.22,0-.11,0-.02-.02-.05-.03-.09-.01-.12,0-.27-.02-.01-.01-.1-.02.05-.02-.22-.01-.45-.04-.22-.07-.09,0-.24-.02-.32-.03h.03c-.05,0-.09,0-.17-.01h.03s-.17,0-.17,0c-.11,0-.05-.03-.22-.03.19,0,0-.02,0-.03,0,0,0-.01,0-.02h-.32c-.18.01-.08.04-.2.06-.18-.01-.36,0-.54,0-.37,0-.8,0-1.12,0,.03,0-.01-.02-.1-.02-.19,0-.04.02-.17.02-.22,0,.03-.05-.37-.03.13,0,.15-.02.22-.04h-1.34Z"/>
</svg>