<?xml version="1.0" encoding="UTF-8"?>
<svg xmlns="http://www.w3.org/2000/svg" viewBox="0 0 17 17">
  <g fill="currentColor" fill-rule="evenodd">
    <path d="M8.044 11.01c-1.46 0-2.66-1.237-2.66-2.743 0-1.505 1.2-2.744 2.66-2.744 1.46 0 2.66 1.239 2.66 2.744 0 1.506-1.2 2.743-2.66 2.743m0-7.025c-2.27 0-4.152 1.907-4.152 4.282S5.74 12.55 8.044 12.55c2.303 0 4.152-1.94 4.152-4.282s-1.882-4.282-4.152-4.282M12.358 2.914c.52 0 .94.435.94.97 0 .535-.42.971-.94.971s-.941-.436-.941-.97c0-.536.421-.971.94-.971"></path>
    <path d="M14.596 11.746c0 1.037-.293 1.873-.876 2.443-.584.568-1.395.87-2.367.87H4.736c-.974 0-1.785-.302-2.368-.87-.584-.603-.876-1.44-.876-2.476V4.854c0-1.003.292-1.84.876-2.442.551-.569 1.394-.87 2.368-.87h6.681c.973 0 1.784.301 2.367.904.552.602.876 1.439.876 2.408v6.892h-.064zm.194-10.37C13.946.472 12.746.004 11.384.004h-6.68C1.88.004 0 1.944 0 4.854v6.86c0 1.436.455 2.675 1.363 3.578.875.87 2.043 1.305 3.373 1.305h6.617c1.393 0 2.561-.469 3.405-1.305.875-.869 1.33-2.107 1.33-3.546V4.854c0-1.405-.455-2.61-1.298-3.478z"></path>
  </g>
</svg>
