<svg xmlns="http://www.w3.org/2000/svg" viewBox="0 0 849.547 338.08"><g fill="#293540"><path d="M845.053 235.401c0 39.652-21.072 73.97-74.546 65.372-19.786-3.564-38.984-11.604-46.626 7.155-4.196-44.73 26.878-41.024 41.418-34.468 19.492 9.764 34.089 20.741 49.492 1.493 20.996-26.205-18.067-78.22-31.478-106.794-14.328-30.524-11.046-79.786 36.484-79.786 14.54 0 29.752 10.199 29.752 27.2 0 11.67-6.518 20.038-14.104 20.038-6.221 0-10.822-3.504-11.792-10.126 7.499-2.136 4.516-23.962-8.948-23.962-9.661 0-15.893 7.158-15.893 19.382 0 37.272 46.37 69.73 46.241 114.496M202.839 170.864c5.197 11.553 55.381 14.248 61.516-28.021 4.037-27.796-11.227-54.316-43.163-54.316-43.181 0-51.736 52.622-51.736 80.66 0 36.377 13.476 75.248 51.736 75.226 31.69 0 46.252-24.521 39.168-38.572-3.036 11.403-17.043 21.422-30.997 21.422-30.467 0-29.528-44.091-29.528-56.287 0-20.49-.15-70.773 21.368-70.773 18.705 0 17.108 30.401 14.348 40.276-3.312 11.866-13.656 33.693-32.712 30.385M147.8 43.66c0-26.545-24.479-43.664-47.2-43.664-28.196 0-67.035 18.103-62.54 106.843C46.263 268.327 10.44 258.825 0 283.283c57.458-23.903 123.886 71.764 153.499-9.22-35.579 30.258-58.247-32.914-111.86-16.974 28.911-26.173 36.708-69.25 33.524-119.7C67.876 22.504 88.637 9.807 100.579 9.807c19.035 0 21.219 42.39 9.534 45.73 2.588 10.407 8.67 14.919 18.354 14.919 11.834 0 19.333-12.315 19.333-26.796" fill-rule="evenodd"/><path d="M145.19 89.507v127.662c0 16.74 8.309 20.745 8.309 20.745-22.21 13.29-38.689 5.295-38.689-14.875l.022-111.77c0-11.301-7.372-16.989-7.372-16.989l37.73-4.773M511.105 127.972l-.021 89.155c0 16.74 8.33 20.756 8.33 20.756-22.242 13.29-38.7 5.294-38.7-14.898V130.36c0-9.784-2.215-19.291-9.886-19.291-10.812 0-20.719 13.985-20.719 40.41v74.143c0 6.202.427 11.671 4.751 17.514h-39.796c4.335-5.843 4.697-11.312 4.697-17.514V130.52c0-9.8-2.216-19.287-9.874-19.287-10.834 0-20.772 13.981-20.772 40.395v73.994c0 6.202.35 11.671 4.697 17.514h-39.785c4.334-5.843 4.708-11.312 4.708-17.514V120.276c0-10.561-6.871-12.516-14.766-12.516-9.106 0-11.408-.027-22.72 0v106.837c0 34.918-22.328 43.419-46.242 36.25 0 0 15.904-.948 15.904-35.865V107.68c-10.578 0-18.226 3.573-19.355 5.124-1.896-14.721 8.799-18.403 19.739-19.632 1.566-53.017 18.865-66.04 41.884-66.04 14.53 0 30.232 10.957 30.232 27.968 0 9.284-4.794 17.161-12.399 17.161-6.21 0-10.088-2.876-11.761-9.545 7.478-2.135 6.082-27.439-6.094-27.439-10.46 0-11.141 12.196-11.908 53.091v4.761h32.682c34.406 0 33.448 24.351 33.448 24.351 9.672-22.86 22.732-29.112 35.216-29.112 14.913 0 25.268 12.93 25.268 29.08 9.661-22.855 22.166-29.123 34.65-29.123 14.903 0 28.592 13.55 28.592 39.647M694.697 117.448c6.167-19.75 20.58-29.07 34.875-29.07 13.39 0 27.739 13.14 27.739 39.297v89.494c0 16.74 8.32 20.745 8.32 20.745-22.243 13.29-38.732 5.295-38.732-14.891l.032-92.643c0-9.79-2.142-19.307-9.832-19.307-10.812 0-20.548 13.98-20.548 40.404v74.144c0 6.202.35 11.666 4.697 17.514h-39.776c4.336-5.848 4.71-11.312 4.71-17.514l-.118-108.173c0-13.88-8.33-18.008-8.33-18.008 36.771-19.808 37.165 12.843 36.963 18.008M606.048 188.888c0 22.024-10.93 39.227-24.861 39.227-19.687 0-21.039-18.823-21.039-27.036 0-32.958 26.864-49.49 45.9-49.49zm30.37 28.287v-71.999c0-17.501-4.442-56.808-49.81-56.808-24.064 0-47.392 15.6-47.392 37.373 0 9.763 4.847 18.471 14.327 18.471 7.766 0 12.624-4.187 14.7-12.505-9.352-2.679-5.804-30.243 15.596-30.243 15.968 0 22.23 13.928 22.23 30.705l-.021 10.674c-26.46 0-74.48 21.55-74.48 62.406 0 21.768 12.26 39.17 36.548 39.17 22.039 0 35.205-15.899 37.932-21.396 0 20.186 16.47 28.181 38.71 14.891 0 0-8.34-4.005-8.34-20.74" fill-rule="evenodd"/><path d="M191.73 326.768c-5.694 0-8.345-7.541-8.345-23.732 0-15.277 2.568-22.09 8.331-22.09 5.988 0 8.428 6.406 8.428 22.11 0 17.063-2.36 23.712-8.415 23.712zm.251-57.22c-14.853 0-22.074 10.988-22.074 33.595 0 23.835 6.846 34.937 21.548 34.937 15.332 0 22.168-10.735 22.168-34.803 0-23.01-6.879-33.729-21.642-33.729M253.293 289.244c0 8.808.027 16.003.268 22.26-1.904-5.387-5.698-15.528-13.528-36.447l-1.673-4.477h-14.516v66.385h12.021v-19.69c0-8.866 0-16.779-.242-23.736 1.982 5.697 6.136 17.205 15.452 42.906l.186.52h13.984V270.58h-11.952v18.664M291.501 282.313h13.846v54.652h13.204v-54.652h13.845V270.58h-40.895v11.733M369.497 296.195H355.46V270.58h-13.201v66.385h13.201v-29.121h14.037v29.121h13.204V270.58h-13.204v25.615M407.365 308.159h20.799v-11.65h-20.799v-14.196h21.779V270.58h-34.813v66.385h34.849l1.656-11.564h-23.47V308.16M475.137 281.553h5.795c5.26 0 7.815 2.627 7.815 8.027 0 6.316-2.511 8.777-8.955 8.777h-4.655zm26.764 7.52c0-11.925-6.837-18.493-19.248-18.493H462.02v66.385h13.117v-27.634h4.187c6.69 0 8.524 2.322 8.524 10.804v2.36c0 5.356.14 10.75 1.153 13.92l.174.55h12.718l-.138-.908c-.538-3.542-.863-6.217-.863-13.456v-2.586c0-8.563-1.888-13.387-6.444-16.151 2.79-1.586 7.453-5.61 7.453-14.79M532.12 326.768c-5.693 0-8.344-7.541-8.344-23.732 0-15.277 2.568-22.09 8.332-22.09 5.987 0 8.427 6.406 8.427 22.11 0 17.063-2.36 23.712-8.415 23.712zm.252-57.22c-14.853 0-22.075 10.988-22.075 33.595 0 23.835 6.847 34.937 21.548 34.937 15.332 0 22.168-10.735 22.168-34.803 0-23.01-6.877-33.729-21.641-33.729M591.473 317.573c-.476 4.311-1.694 9.258-6.933 9.258-7.047 0-7.95-12.24-7.95-22.904 0-16.522 2.32-22.96 8.27-22.96 5.348 0 6.375 4.78 6.67 8.947l.089 1.135h13.037l-.044-.829c-.873-17.085-11.124-20.672-19.57-20.672-14.615 0-22.026 11.485-22.026 34.137 0 16.64 1.65 34.395 21.332 34.395 11.925 0 19.128-7.308 20.285-20.578l-.774-.193.784.07.078-.858h-13.125l-.123 1.052M658.55 270.58h-15.283l-.231.373c-3.077 4.958-7.199 12.072-10.832 18.351-1.827 3.153-3.473 6.001-4.804 8.256v-26.98h-13.035v66.385H627.4V314.84l4.853-6.83 11.539 28.463.197.493h14.628l-17.358-40.193 17.29-26.192M684.744 296.532c-7.824-3.633-9.215-5.69-9.215-9.66 0-3.007 1.016-6.592 5.855-6.592 4.904 0 5.995 4.272 6.413 8.45l.071.709h12.893l-.017-.808c-.164-7.122-2.87-19.07-19.155-19.07-11.837 0-19.19 7.005-19.19 18.283 0 9.51 4.012 14.627 15.89 20.272 7.848 3.744 10.366 6.568 10.366 11.619 0 5.052-2.367 7.612-7.04 7.612-4.626 0-7.198-3.075-7.86-9.402l-.076-.706h-13.084l.036.821c.312 7.473 3.406 20.01 20.636 20.01 15.324 0 20.784-10.013 20.784-19.38 0-11.842-6.346-17.093-17.307-22.158"/></g></svg>