<svg xmlns="http://www.w3.org/2000/svg" viewBox="0 0 185 67"><g fill="#333F48" fill-rule="evenodd"><path d="M184.021 51.293c-.041 14.577-13.456 16.02-25.098 14.158-9.066-1.45-17.958-3.435-19.206 1.549-.913-9.687 7.577-10.602 17.158-8.189 9.165 2.305 17.204 5.217 20.557 1.048 4.571-5.675-3.933-16.94-6.853-23.128-3.12-6.611-2.405-17.28 7.943-17.28 3.166 0 6.478 2.21 6.478 5.891 0 2.528-1.42 4.34-3.07 4.34-1.355 0-2.357-.76-2.568-2.193 1.633-.463.983-5.19-1.948-5.19-2.104 0-3.46 1.55-3.46 4.198 0 8.072 10.095 15.101 10.067 24.796M44.006 37.336c1.136 2.51 12.102 3.095 13.443-6.086.882-6.038-2.454-11.798-9.432-11.798-9.436 0-11.305 11.43-11.305 17.52 0 7.901 2.945 16.344 11.305 16.34 6.925 0 10.106-5.327 8.559-8.378-.664 2.476-3.725 4.652-6.774 4.652-6.657 0-6.452-9.576-6.452-12.226 0-4.45-.033-15.372 4.67-15.372 4.087 0 3.737 6.603 3.134 8.748-.723 2.578-2.984 7.319-7.148 6.6"/><path d="M21.803 0C15.693 0 7.275 3.952 8.25 23.325 10.027 58.58 2.262 56.505 0 61.845c12.157-9.68 44.69 15.666 51.109-2.013-7.711 6.605-25.39-9.436-42.084-3.706 6.265-5.714 7.955-15.118 7.265-26.132-1.58-25.08 2.92-27.852 5.509-27.852 4.125 0 4.598 9.254 2.066 9.983.56 2.272 1.879 3.257 3.978 3.257 2.565 0 4.19-2.688 4.19-5.85C32.033 3.737 26.727 0 21.803 0z"/><path d="M31.294 19.452V47.35c0 3.658 1.819 4.533 1.819 4.533-4.862 2.904-8.469 1.157-8.469-3.25l.005-24.426c0-2.47-1.614-3.713-1.614-3.713l8.26-1.043zM111.207 27.616l-.004 19.321c0 3.628 1.813 4.498 1.813 4.498-4.84 2.88-8.423 1.148-8.423-3.228V28.134c0-2.12-.482-4.181-2.15-4.181-2.354 0-4.51 3.031-4.51 8.757v16.068c0 1.344.093 2.53 1.034 3.795h-8.66c.943-1.266 1.022-2.451 1.022-3.795v-20.61c0-2.123-.483-4.18-2.15-4.18-2.357 0-4.52 3.03-4.52 8.755v16.035c0 1.344.076 2.53 1.022 3.795h-8.658c.943-1.266 1.024-2.451 1.024-3.795v-22.83c0-2.288-1.495-2.712-3.213-2.712-1.982 0-2.482-.006-4.944 0V46.39c0 7.567-4.86 9.41-10.064 7.856 0 0 3.461-.206 3.461-7.773V23.22c-2.302 0-3.966.774-4.212 1.11-.413-3.19 1.915-3.988 4.296-4.254.34-11.49 4.105-14.312 9.115-14.312 3.162 0 6.58 2.375 6.58 6.061 0 2.012-1.044 3.72-2.7 3.72-1.35 0-2.195-.624-2.559-2.07 1.628-.462 1.324-5.946-1.326-5.946-2.276 0-2.424 2.644-2.591 11.506v1.032h7.112c7.488 0 7.28 5.277 7.28 5.277 2.104-4.954 4.946-6.31 7.663-6.31 3.246 0 5.5 2.803 5.5 6.303 2.102-4.953 4.823-6.312 7.54-6.312 3.243 0 6.222 2.937 6.222 8.592M151.387 25.759c1.358-4.285 4.531-6.307 7.678-6.307 2.948 0 6.107 2.85 6.107 8.525v19.417c0 3.632 1.832 4.5 1.832 4.5-4.897 2.884-8.527 1.15-8.527-3.23l.007-20.1c0-2.124-.472-4.189-2.165-4.189-2.38 0-4.524 3.034-4.524 8.766v16.087c0 1.345.078 2.53 1.034 3.8h-8.757c.955-1.27 1.037-2.455 1.037-3.8l-.026-23.47c0-3.01-1.834-3.906-1.834-3.906 8.096-4.298 8.183 2.786 8.138 3.907M132 41.259c0 4.778-2.364 8.51-5.376 8.51-4.257 0-4.55-4.084-4.55-5.865 0-7.15 5.81-10.737 9.926-10.737v8.092zm6.566 6.136v-15.62c0-3.796-.96-12.323-10.77-12.323-5.203 0-10.247 3.384-10.247 8.108 0 2.118 1.048 4.007 3.098 4.007 1.679 0 2.73-.909 3.178-2.713-2.022-.582-1.255-6.561 3.372-6.561 3.453 0 4.807 3.021 4.807 6.661L132 31.27c-5.722 0-16.105 4.675-16.105 13.538 0 4.723 2.651 8.498 7.903 8.498 4.765 0 7.612-3.45 8.202-4.642 0 4.38 3.56 6.114 8.37 3.23 0 0-1.804-.868-1.804-4.499z"/></g></svg>