<?xml version="1.0" encoding="UTF-8"?>
<svg xmlns="http://www.w3.org/2000/svg" xmlns:xlink="http://www.w3.org/1999/xlink" width="194px" height="186px" viewBox="0 0 194 186" version="1.1">
  <title>download</title>
  <g id="Final" stroke="none" stroke-width="1" fill="none" fill-rule="evenodd">
    <g id="Liefmans_Home_Single" transform="translate(-963.000000, -1005.000000)">
      <g id="download" transform="translate(963.000000, 1005.000000)">
        <g id="Group">
          <path d="M89.6707457,182.96222 C40.5447814,182.96222 0.580472552,141.936675 0.580472552,91.5033575 C0.580472552,41.0666821 40.5431462,0.0361009091 89.6707457,0.0361009091 C138.79344,0.0361009091 178.756113,41.0666821 178.756113,91.5033575 C178.756113,141.938354 138.79344,182.96222 89.6707457,182.96222 Z M89.6707457,2.7237962 C41.9902398,2.7237962 3.19995714,42.552385 3.19995714,91.5033575 C3.19995714,140.447615 41.9902398,180.276204 89.6707457,180.276204 C137.346346,180.276204 176.136629,140.447615 176.136629,91.5033575 C176.136629,42.552385 137.346346,2.7237962 89.6707457,2.7237962 Z" id="Shape" fill="#8E9090" fill-rule="nonzero"></path>
          <path d="M89.6707457,178.37249 C43.0138336,178.37249 5.05583417,139.401747 5.05583417,91.5033575 C5.05583417,43.6016102 43.0138336,4.62918917 89.6707457,4.62918917 C136.329293,4.62918917 174.290563,43.5999315 174.290563,91.5033575 C174.290563,139.401747 136.329293,178.37249 89.6707457,178.37249 Z M89.6707457,7.32024198 C44.4576569,7.32024198 7.67531875,45.0839556 7.67531875,91.5033575 C7.67531875,137.917723 44.4592921,175.679758 89.6707457,175.679758 C134.880564,175.679758 171.667808,137.919402 171.667808,91.5033575 C171.667808,45.0856344 134.880564,7.32024198 89.6707457,7.32024198 Z" id="Shape" fill="#8E9090" fill-rule="nonzero"></path>
          <path d="M89.6707457,153.446256 C56.4055807,153.446256 29.3408436,125.659415 29.3408436,91.5033575 C29.3408436,57.3439423 56.4055807,29.5571013 89.6707457,29.5571013 C122.939181,29.5571013 150.002283,57.3439423 150.002283,91.5033575 C150.002283,125.661094 122.939181,153.446256 89.6707457,153.446256 Z M89.6707457,32.2447966 C57.8477688,32.2447966 31.9619633,58.8296452 31.9619633,91.5033575 C31.9619633,124.173712 57.8477688,150.76024 89.6707457,150.76024 C121.495358,150.76024 147.384434,124.173712 147.384434,91.5033575 C147.384434,58.8296452 121.495358,32.2447966 89.6707457,32.2447966 Z" id="Shape" fill="#8E9090" fill-rule="nonzero"></path>
          <g transform="translate(21.256741, 11.798855)">
            <path d="M126.016503,93.844701 C118.323198,126.186019 86.2271536,145.908095 54.3322308,137.907123 C22.4340378,129.906152 2.80752499,97.2106155 10.4975599,64.874334 C18.1957706,32.5363737 50.2901797,12.8142974 82.1851025,20.8068753 C114.094742,28.8162408 133.704903,61.5168133 126.016503,93.844701 Z" id="Path"></path>
            <path d="M7.2583596,43.1528541 L5.8423336,43.9452289 C4.9511856,44.4387845 4.19248344,44.7191374 3.56786227,44.7795728 C2.94160597,44.841687 2.34151181,44.7006711 1.76594466,44.358204 C0.904229073,43.8445033 0.376080808,43.1176001 0.184770136,42.1842094 C-0.00654053579,41.2491398 0.176594466,40.2888889 0.732540009,39.3068141 C1.26232341,38.3667084 2.00630935,37.6599503 2.96449785,37.1798248 L4.74352358,38.2424801 C3.52698393,38.600056 2.6538224,39.2463788 2.12567413,40.1797695 C1.82644462,40.7052215 1.70217444,41.2071708 1.74795819,41.6872963 C1.79210681,42.1674217 2.00140395,42.5166039 2.37094422,42.7365215 C2.69960615,42.9312577 3.07732209,42.9900143 3.50572718,42.9111126 C3.93086201,42.8338896 4.45901028,42.6122932 5.08690171,42.2463235 L6.49148177,41.4388398 C8.06611577,40.5440605 9.46906069,40.4618013 10.7035868,41.198777 C11.5816538,41.7225503 12.1261534,42.4494535 12.3321802,43.3811655 C12.5398422,44.3111987 12.3697883,45.261377 11.8236536,46.2266642 C11.1957621,47.3380036 10.2898979,48.1505236 9.10769609,48.6675817 L7.11773808,47.4806982 C8.68256126,47.250708 9.78791181,46.5640951 10.4354249,45.4208593 C10.7199382,44.9155524 10.8196813,44.4119243 10.7379246,43.9150113 C10.6528977,43.4180982 10.4043573,43.0437346 9.99230356,42.8003144 C9.32843917,42.4058057 8.41603443,42.5233189 7.2583596,43.1528541 Z" id="Path" stroke="#8E9090" stroke-width="0.1973" fill="#8E9090" fill-rule="nonzero"></path>
            <polygon id="Path" stroke="#8E9090" stroke-width="0.1973" fill="#8E9090" fill-rule="nonzero" points="6.38356293 30.9012612 11.0224379 25.270699 12.2553289 26.3417481 8.78884497 30.5504003 11.7369915 33.1121885 15.0890161 29.046231 16.3284476 30.1239951 12.976423 34.1899527 15.9817992 36.800425 19.5594723 32.4557932 20.7923633 33.5268423 16.0439343 39.2917053"></polygon>
            <path d="M23.9481718,30.4060269 L16.0553802,20.2293817 L18.5407838,18.1997605 C19.5414858,17.3805255 20.5356473,16.984338 21.5199979,17.012877 C22.5027134,17.0414159 23.3333614,17.4913236 24.0086718,18.3592427 C24.4665093,18.9518451 24.719955,19.583059 24.7673739,20.2495269 C24.8131577,20.9159947 24.6496443,21.5791051 24.2768337,22.2338216 C24.7591982,22.1884951 25.2955222,22.2271065 25.8858055,22.3479773 C26.4728186,22.468848 27.3999396,22.7659886 28.6606278,23.2343627 C29.4520327,23.5298246 30.066843,23.7396696 30.5001535,23.8605403 L31.5907879,24.1593597 L29.9016945,25.5393007 L28.9500466,25.222015 C28.9157087,25.2102636 28.8552088,25.1901185 28.7685467,25.1682946 L28.1815336,24.9937036 L27.1661154,24.6092674 L26.0754811,24.2030074 C25.4574004,24.0250589 24.9325224,23.9109032 24.4975768,23.8638979 C24.060996,23.8168926 23.7029017,23.8185713 23.4200235,23.8689341 C23.1404156,23.9209757 22.7676051,24.135857 22.3032271,24.5152569 L21.9336868,24.8191125 L25.3691032,29.2476822 L23.9481718,30.4060269 Z M18.859635,19.9591013 L18.4345001,20.3082835 L20.9264443,23.5214308 L21.4644033,23.0799168 C22.1822271,22.4923507 22.6286187,22.0256553 22.7970375,21.6815094 C22.9670914,21.3373636 23.0259563,20.9764301 22.9769022,20.598709 C22.9294834,20.2209879 22.779051,19.870127 22.5272404,19.5461263 C22.2770649,19.2254831 21.9712949,19.0022079 21.6033897,18.8779797 C21.2354846,18.7537514 20.8610389,18.7621452 20.4784176,18.8998036 C20.0957962,19.0374619 19.5545669,19.3916803 18.859635,19.9591013 Z" id="Shape" stroke="#8E9090" stroke-width="0.1973" fill="#8E9090" fill-rule="nonzero"></path>
            <polygon id="Path" stroke="#8E9090" stroke-width="0.1973" fill="#8E9090" fill-rule="nonzero" points="34.6975424 7.65546687 36.2934331 6.78586902 37.5181484 20.9042434 37.1567838 21.1023371 26.3730755 12.1830835 27.9869527 11.3067706 35.5183796 17.545044"></polygon>
            <polygon id="Path" stroke="#8E9090" stroke-width="0.1973" fill="#8E9090" fill-rule="nonzero" points="42.0834424 4.59005051 48.9559104 2.44795233 49.4251939 4.03438084 44.2892381 5.63591819 45.4125751 9.42991654 50.3768418 7.88377828 50.8477604 9.47692183 45.8834937 11.0247389 47.0280875 14.8926027 52.3308269 13.2390237 52.8001103 14.8254522 45.7624938 17.019592"></polygon>
            <path d="M71.0678268,0.0523613341 C73.0218119,0.13462059 74.6258783,0.841378689 75.8751206,2.16927811 C77.1243629,3.49549877 77.7097409,5.11718125 77.6328896,7.03264679 C77.552768,8.94979109 76.8333091,10.5076807 75.4696074,11.7063155 C74.1075408,12.9066292 72.4266231,13.4639776 70.4284894,13.3783608 C68.518653,13.2961016 66.9538298,12.6010948 65.735655,11.289983 C64.5158451,9.98054993 63.9435482,8.37901257 64.0220346,6.48704968 C64.0988859,4.54472398 64.8052638,2.96668927 66.1346277,1.74958803 C67.4672618,0.534165549 69.1122066,-0.0332554427 71.0678268,0.0523613341 Z M71.0678268,1.82177472 C69.6207332,1.75798183 68.4107341,2.17263563 67.4394646,3.06405737 C66.468195,3.95380034 65.9547629,5.12221753 65.8975332,6.56763018 C65.8403036,7.96771629 66.2621681,9.15459985 67.1582215,10.1249233 C68.0559101,11.0952468 69.2086795,11.6106262 70.6148947,11.6693828 C72.0260153,11.7298182 73.2262036,11.3067706 74.207284,10.3985613 C75.1916346,9.49035191 75.7116072,8.32864976 75.7688369,6.91345481 C75.8244314,5.53687133 75.3992966,4.35838158 74.4917973,3.37966431 C73.5842979,2.40094704 72.4446096,1.88053133 71.0678268,1.82177472 Z" id="Shape" stroke="#8E9090" stroke-width="0.1973" fill="#8E9090" fill-rule="nonzero"></path>
            <polygon id="Path" stroke="#8E9090" stroke-width="0.1973" fill="#8E9090" fill-rule="nonzero" points="95.4460388 5.1826529 97.0909836 5.70978365 93.3023782 18.1225375 91.8127712 17.6424121 86.6457479 5.483151 83.728669 15.0436911 82.1017107 14.5199179 85.8919512 2.10716398 87.293261 2.55875051 92.5027977 14.8237735"></polygon>
          </g>
          <g transform="translate(29.432411, 30.532847)">
            <path d="M117.840833,75.1694655 C125.527598,42.8281478 105.919072,10.1342903 74.0077976,2.1282823 C42.11451,-5.86429564 10.0184657,13.856102 2.32189021,46.1923835 C-5.36814475,78.5253074 14.258368,111.22588 46.1565611,119.225173 C78.0514839,127.226145 110.147528,107.504068 117.840833,75.1694655 Z" id="Path"></path>
            <polygon id="Path" stroke="#8E9090" stroke-width="0.1955" fill="#8E9090" fill-rule="nonzero" points="29.4209651 118.15916 39.1173094 122.517222 38.4697964 124.0365 34.424475 122.216724 29.9834512 132.631753 28.3139794 131.881347 32.7533681 121.466318 28.771817 119.678438"></polygon>
            <polygon id="Path" stroke="#8E9090" stroke-width="0.1955" fill="#8E9090" fill-rule="nonzero" points="50.6760713 125.330824 52.4518268 125.711903 49.8699503 138.446979 48.0941948 138.0659 49.219167 132.522633 42.248591 131.031894 41.1236188 136.575161 39.3478633 136.194082 41.931375 123.460685 43.7071304 123.841764 42.5903339 129.346419 49.56091 130.835479"></polygon>
            <polygon id="Path" stroke="#8E9090" stroke-width="0.1955" fill="#8E9090" fill-rule="nonzero" points="56.3516213 125.941893 63.5347647 126.039261 63.5135079 127.696198 58.1453632 127.624011 58.094674 131.590921 63.2796838 131.659751 63.2600622 133.32676 58.0717822 133.256252 58.0194579 137.297028 63.5609268 137.370893 63.538035 139.02783 56.1848376 138.927104"></polygon>
            <path d="M73.9734598,137.88963 L71.082543,125.225062 L74.1745813,124.48305 C75.4221885,124.182552 76.4850256,124.261454 77.3614574,124.721434 C78.2395243,125.179736 78.8020104,125.948608 79.0489156,127.031408 C79.2173344,127.768384 79.1813614,128.449961 78.9475373,129.07446 C78.7104429,129.698959 78.2869432,130.224411 77.6786733,130.650816 C78.1316054,130.822049 78.5992538,131.09233 79.0816183,131.458299 C79.5639828,131.829305 80.2752661,132.50081 81.2203735,133.479527 C81.8139271,134.095632 82.2815754,134.553933 82.6233184,134.852753 L83.4833989,135.60148 L81.3806166,136.108466 L80.652982,135.403386 C80.628455,135.376526 80.5810361,135.332878 80.5123605,135.274122 L80.054523,134.857789 L79.2958208,134.063735 L78.479889,133.21764 C77.9975245,132.78452 77.5691194,132.450447 77.1946737,132.21542 C76.8218632,131.980394 76.4964715,131.825948 76.2201339,131.748725 C75.9437962,131.671502 75.5170263,131.703398 74.9414591,131.842736 L74.4803513,131.951855 L75.7410396,137.463225 L73.9734598,137.88963 Z M73.73146,126.213852 L73.2016766,126.341438 L74.1140813,130.340245 L74.7861214,130.179084 C75.6805397,129.962524 76.2757284,129.735891 76.5733228,129.500865 C76.8709172,129.262481 77.0753089,128.963662 77.1881332,128.602728 C77.3009574,128.240116 77.3107682,127.857358 77.2192007,127.451098 C77.1292683,127.053232 76.9428631,126.715801 76.6632552,126.440485 C76.3836473,126.166847 76.0419043,126.009043 75.6380262,125.967074 C75.232513,125.923427 74.5964458,126.005686 73.73146,126.213852 Z" id="Shape" stroke="#8E9090" stroke-width="0.1955" fill="#8E9090" fill-rule="nonzero"></path>
            <path d="M87.6300986,119.612967 C89.4025838,118.760156 91.1407311,118.629213 92.8445407,119.2151 C94.5483503,119.802666 95.7975926,120.964369 96.5873623,122.701886 C97.3804023,124.439402 97.4392671,126.163489 96.7688622,127.872467 C96.0968221,129.583124 94.8541203,130.872412 93.0440271,131.743689 C91.3124202,132.572996 89.6118809,132.695546 87.9424091,132.109658 C86.2729374,131.52545 85.0449518,130.375499 84.2649929,128.659806 C83.4637773,126.898786 83.3803854,125.164627 84.0164525,123.45397 C84.6525196,121.743313 85.8543431,120.462419 87.6300986,119.612967 Z M88.4247736,121.182607 C87.110126,121.812143 86.2222482,122.753927 85.7611404,124.002925 C85.3000327,125.251922 85.3703434,126.531138 85.9655322,127.84225 C86.5443696,129.113071 87.4485987,129.96756 88.6814897,130.402359 C89.9160158,130.838837 91.1668933,130.749863 92.4422978,130.137115 C93.7226076,129.524368 94.5957692,128.579225 95.0601472,127.306725 C95.5245253,126.035904 95.4656604,124.758367 94.8835527,123.479152 C94.312891,122.230154 93.4070268,121.385737 92.164325,120.944223 C90.9183529,120.506067 89.6707457,120.58329 88.4247736,121.182607 Z" id="Shape" stroke="#8E9090" stroke-width="0.1955" fill="#8E9090" fill-rule="nonzero"></path>
            <path d="M111.892216,114.984624 L113.159445,116.569374 C112.590418,118.00975 111.633865,119.299038 110.28815,120.432202 C109.194245,121.35552 108.087259,121.911189 106.965557,122.102568 C105.843856,122.293947 104.74341,122.179791 103.665857,121.763458 C102.588304,121.345447 101.680805,120.677301 100.944994,119.755661 C99.7742384,118.293461 99.2984144,116.634846 99.5175224,114.778137 C99.7366303,112.924785 100.59017,111.368575 102.079777,110.112862 C103.108277,109.244943 104.471978,108.55833 106.169247,108.051344 L107.407044,109.597482 C105.726126,109.891265 104.336262,110.497298 103.242357,111.420616 C102.122291,112.365758 101.481318,113.51403 101.32271,114.865432 C101.162467,116.216834 101.518926,117.438972 102.395358,118.533524 C103.276695,119.636469 104.365695,120.237465 105.665626,120.331476 C106.962287,120.427165 108.175557,119.997403 109.31034,119.03883 C110.502352,118.036611 111.360798,116.686887 111.892216,114.984624 Z" id="Path" stroke="#8E9090" stroke-width="0.1955" fill="#8E9090" fill-rule="nonzero"></path>
            <polygon id="Path" stroke="#8E9090" stroke-width="0.1955" fill="#8E9090" fill-rule="nonzero" points="112.619851 98.6435712 114.012985 96.8053287 115.389768 105.048042 124.845747 103.688246 123.326708 105.694365 114.413593 107.003798 119.353332 110.945527 118.241441 112.416121 108.236057 104.435294 109.347948 102.966379 113.926323 106.616004"></polygon>
            <path d="M123.823788,94.1965351 L122.4421,95.0543816 C121.575479,95.5899062 120.831493,95.9038344 120.206872,95.9944874 C119.585521,96.0851405 118.980522,95.9709848 118.390238,95.6553778 C117.507266,95.1836462 116.94805,94.4836031 116.715861,93.5569274 C116.485307,92.628573 116.624294,91.6632858 117.137726,90.6560296 C117.626631,89.6940999 118.337914,88.9504091 119.274846,88.4299934 L121.099655,89.4087106 C119.899467,89.8216857 119.055738,90.5066199 118.568468,91.465192 C118.293765,92.0040741 118.190752,92.5127385 118.259428,92.9895064 C118.324833,93.4662744 118.547211,93.805384 118.926562,94.008514 C119.261765,94.1881413 119.642751,94.2301103 120.066251,94.1327422 C120.48975,94.0336954 121.006453,93.7885963 121.616358,93.3957664 L122.984965,92.5244898 C124.51872,91.5558451 125.91676,91.4114717 127.180718,92.0880121 C128.081677,92.5698163 128.653974,93.2715382 128.90415,94.1914988 C129.15269,95.1131382 129.023514,96.0683529 128.521528,97.0605002 C127.942691,98.1986997 127.0728,99.0548675 125.91676,99.6239673 L123.872843,98.5294155 C125.427855,98.2272387 126.500503,97.4902629 127.097327,96.3201669 C127.360583,95.80143 127.440705,95.2961231 127.336056,94.8008888 C127.228137,94.3073333 126.964881,93.9480786 126.544651,93.7197672 C125.85626,93.3537974 124.950396,93.5132797 123.823788,94.1965351 Z" id="Path" stroke="#8E9090" stroke-width="0.1955" fill="#8E9090" fill-rule="nonzero"></path>
          </g>
          <g transform="translate(12.570092, 34.422149)" fill-rule="nonzero" id="Path">
            <path d="M14.0924019,40.7989123 L27.5953381,31.5657305 L97.0885309,6.23323711 L113.462762,5.69099752 C113.462762,5.69099752 120.966392,11.1822226 126.967334,18.8054732 C135.47003,29.5982234 143.349741,43.6998102 143.349741,44.1329303 C143.349741,44.8615123 137.05284,74.4412693 137.05284,74.4412693 L124.808957,78.6918905 L51.3538343,106.414939 L36.5967505,107.156951 C36.5967505,107.156951 9.95060764,73.3332875 9.95060764,72.7776179 C9.95060764,72.2202694 14.0924019,40.7989123 14.0924019,40.7989123 Z" fill="#FFFFFF"></path>
            <path d="M26.8922305,29.2742226 C24.7224077,30.5097902 22.9303009,32.1935869 20.9681402,33.7279738 C19.7254384,34.7016548 18.8097634,35.7240198 18.4222366,37.3289147 C18.2374665,38.0809993 17.7387506,39.2897068 18.7885066,39.5381633 C19.8709653,39.7966924 21.3033426,39.0328564 22.2206528,38.5678398 C24.0945163,37.6260553 25.8163123,36.3770576 27.5250273,35.1649926" fill="#FFFFFF"></path>
            <path d="M29.8240256,33.0715785 C27.1718384,35.3211174 24.2269621,37.3557749 21.0188293,38.6736017 C20.3664109,38.9505972 18.695304,39.7513659 18.0347099,39.0765042 C17.6406426,38.6853531 17.8450343,38.0222427 17.9823856,37.5639412 C18.4598447,35.8935746 18.7819661,35.786134 19.8693302,34.5102761 C20.7572079,33.4862323 26.3771633,30.6424123 27.4350949,29.7979959 C29.8665391,27.8590277 29.8796202,27.0985493 30.9489978,27.0246838 L29.8240256,33.0715785 Z" fill="#FFFFFF"></path>
            <path d="M108.993941,7.14144645 C105.565065,7.44698083 102.016825,7.40836934 98.6517189,6.62606702 C97.9616924,6.46826355 96.1385181,6.16272917 95.9733695,5.22094463 C95.8654507,4.67031124 96.3985043,4.24390612 96.7647744,3.94340802 C98.0777869,2.84382 97.2961929,2.04473008 98.9427728,2.16895835 C101.223785,2.33683438 105.74166,1.77780719 107.084105,1.8365638 C108.140401,1.88021157 107.795388,-0.0587566116 108.711063,0.498591818 L108.993941,7.14144645 Z" fill="#FFFFFF"></path>
            <path d="M125.252078,84.7455002 C125.132713,84.7455002 125.011713,84.7455002 124.897254,84.7455002 C127.143928,84.9838842 129.333372,84.6917799 131.581682,84.7001737 C132.60364,84.7068888 133.64195,84.7186401 134.255126,83.7567104 C134.907544,82.7192365 135.280355,80.8574913 134.781639,79.7075405 C133.787477,77.4210689 129.537764,78.5945224 127.802887,78.856409" fill="#FFFFFF"></path>
            <path d="M41.2879498,110.119963 C41.7883007,110.442285 42.743219,110.250906 43.3204213,110.250906 C43.8976235,110.250906 44.4731907,110.230761 45.0487578,110.250906 C46.1328516,110.271051 47.2774454,110.378492 48.4187689,110.378492 C50.7521051,110.378492 53.0069548,110.663881 55.2994126,110.930804 C55.9469256,110.997954 56.6418575,110.967737 57.318803,111.033208 C57.6736271,111.066783 58.002289,111.133934 58.3522076,111.191012 C58.7266533,111.253126 59.2744232,111.197727 59.6161662,111.380712 C59.9284768,110.271051 57.8943701,109.131173 57.2239652,108.682944 C56.4946955,108.179316 55.8896959,107.512848 55.1473451,107.039437 C54.1024945,106.374648 52.8287252,106.121156 51.6775909,105.719932 C50.5002944,105.310314 49.4243763,104.687494 48.2601609,104.229193 C47.3363102,103.874974 46.3486893,103.816218 45.4117576,103.510683 C44.5614879,103.23033 43.8436641,102.881148 42.9296242,102.795531 C41.2078282,102.644443 39.4418835,102.832464 37.726628,102.918081" fill="#FFFFFF"></path>
            <path d="M43.707948,110.378492 C43.6883264,110.291196 43.6948669,110.212294 43.732475,110.138429 C45.9758788,109.816107 48.1326205,110.499362 50.385835,110.511114 C51.5320639,110.519508 52.6210632,110.813291 53.754211,110.907301 C54.5897644,110.972773 57.0522762,110.771322 56.1856552,109.403132 C55.3615477,108.095378 53.4042923,107.287894 52.1779419,106.470338 C50.8469428,105.580595 49.6827274,104.58509 48.6738498,103.31259" fill="#FFFFFF"></path>
            <path d="M131.436155,79.4288663 C129.233629,79.2425239 126.31001,81.0052222 124.996997,82.7444179 C124.269362,83.7231352 124.604565,85.2323407 125.834186,85.5966317 C126.74005,85.8702697 127.972941,86.3319288 128.895156,86.162374 C129.91221,85.9760316 131.606209,85.5311601 132.647789,85.8266219 L131.436155,79.4288663" fill="#FFFFFF"></path>
            <path d="M65.3832836,65.9786385 C65.3832836,65.9786385 62.2552724,62.6261541 61.0403679,61.1874565 C60.5923412,60.658647 59.527869,59.6547483 60.0968956,56.9418717 C60.6610168,54.2172436 61.0894219,46.9448539 63.1088123,41.270644 C65.1282027,35.6048279 66.6881205,26.20377 67.4664443,23.1047784 C68.2529437,20.0108231 70.3475503,10.2941583 71.4806981,9.20128537 C72.6220216,8.10337612 79.8476785,7.72061876 85.2076476,6.50351752 C90.9992921,5.17393934 100.949082,5.35356669 103.274243,5.23773223 C105.610849,5.13364909 112.439168,4.17843446 114.815018,4.86001116 C117.179422,5.53823033 124.651984,9.58068521 128.20186,13.0171076 C131.032277,15.760202 136.398786,19.2839199 141.863404,22.8647157 C147.334562,26.4606203 150.343208,29.2221811 151.064303,31.4532536 C151.785397,33.6826473 149.828141,40.2902479 148.714615,43.9633755 C147.599454,47.6297881 146.157266,56.1965021 144.87205,60.6116417 C143.176416,66.4134374 140.985337,76.5967976 139.969919,78.7875798 C138.9545,80.9867559 137.471434,80.5402056 133.794018,82.1350279 C130.110061,83.7231352 119.409744,82.2710075 114.998153,84.6884224 C112.316533,86.1590164 99.5837453,88.8366392 97.3992063,88.2742545 C95.2081268,87.7051547 87.9759294,82.2861164 84.8135803,80.3572207 C81.6528664,78.4300039 71.992495,68.4749551 65.3832836,65.9786385 Z" stroke="#8E9090" fill="#8E9090"></path>
            <path d="M87.4804838,17.9258028 C88.9292125,19.0623236 90.2602115,19.9671754 91.8757238,20.8283794 C92.6295206,21.2296031 93.4062092,21.6778321 94.0618979,22.2637195 C95.100208,23.1736076 96.3788827,23.927371 97.5823413,24.7298184 C98.5078271,25.342566 99.3989751,26.0275002 100.232893,26.7728698 C100.988325,27.4426951 101.771555,27.8254525 102.530257,28.4516301 C103.934837,29.5982234 105.427714,31.0117396 107.121713,31.6748499 C107.932739,32.0055657 108.755212,32.4067894 109.661076,32.5444478 C111.673926,32.858376 113.541249,31.4196783 115.534477,31.4129633 C116.590773,31.4129633 117.637259,31.28202 118.68211,31.1410041 C119.246231,31.0688174 119.834879,30.9714493 120.371203,30.7884645 C120.732568,30.665915 121.030162,30.4459974 121.404608,30.3620593 C122.555742,30.1270329 123.854038,30.1522143 125.024794,30.1337479 C125.760605,30.1152816 127.811063,30.1690019 128.071049,29.2708651 C128.417697,28.0218674 125.798213,26.4169726 124.983916,25.8562666 C123.975038,25.1495085 122.961255,24.4276416 121.944202,23.717526 C120.590311,22.7774202 119.189001,21.7886303 117.980637,20.6588246 C117.275895,20.0024293 116.455057,19.6112782 115.745409,19.0186758 C117.179422,19.6498897 118.61834,20.2693522 120.075244,20.8619546 C121.402973,21.4041942 122.642404,22.0555532 123.981579,22.5877202 C124.463943,22.7774202 124.833484,23.1030997 125.2717,23.3448412 C126.089267,23.814894 127.021293,24.3638487 127.918981,24.6425229 C128.890251,24.9446998 129.913845,25.1864412 130.814804,25.6934269 C131.385465,26.0107126 132.489181,26.7980512 132.29787,27.576996 C132.080397,28.4617026 130.909641,29.0274449 130.191818,29.405166 C130.997939,29.3816633 131.74029,29.405166 132.502262,29.2221811 C132.917586,29.1281705 133.342721,29.2305749 133.761315,29.1785333 C134.760382,29.0593413 135.595935,29.2742226 136.560664,29.4001297 C137.633312,29.5293942 139.021541,29.3329793 140.068027,29.0643776 C140.892134,28.8528538 141.737498,28.6564388 142.620471,28.6245424 C143.542686,28.5792159 144.517226,28.6396512 145.401834,28.8394237 C146.247198,29.0341599 146.925778,29.3178704 147.700832,29.7493118 C147.385251,29.4656013 147.1269,29.2053935 146.76063,28.9569369 C146.494103,28.7756308 146.310968,28.5087079 146.100036,28.3408319 C145.176185,27.5853898 143.637524,27.2983217 142.589403,26.6301751 C141.345066,25.8361215 140.182486,24.907767 138.925068,24.1422523 C135.187152,21.8524232 131.584952,19.661641 128.008914,17.1267129 C126.466983,16.0355187 124.918511,14.9879722 123.546633,13.6701454 C122.204188,12.3875725 120.87973,11.1805438 119.344339,10.1380336 C118.041137,9.2550057 116.759192,8.16381149 115.302288,7.55274273 C114.733261,7.31771628 111.637953,6.41286446 112.339425,8.02111686 C112.669722,8.78159529 113.50037,9.39770033 114.084113,9.95169124 C114.752883,10.5795476 115.411842,11.2241916 116.05772,11.8940169 C115.254869,11.6589905 114.519059,11.178865 113.753816,10.8464705 C112.936249,10.4872158 112.046736,10.1531425 111.271683,9.71162851 C109.911251,8.92596868 108.73232,7.75755149 107.182213,7.37815165 C106.318862,7.16327033 105.396646,7.07093851 104.513674,7.15655529 C103.839999,7.22202694 102.945581,7.11962256 102.32423,7.44865959 C102.412527,7.96907529 102.603838,8.29475479 102.983189,8.74130504 C102.064243,8.50124231 101.179636,7.94221512 100.25415,7.78273289 C99.2011239,7.60646306 98.2707327,8.07483719 97.2683956,8.26957339 C96.3935989,8.44416446 94.8860054,8.23431942 94.1763573,8.84370942 C92.4104126,10.3294123 97.4711522,14.3852973 98.2396652,15.2246774 C99.1079213,16.1748558 99.9614612,17.1082465 100.996501,17.8771188 C101.905635,18.5419079 102.885081,19.1026138 103.823648,19.7355064 C105.218417,20.6789698 106.582119,21.6593658 107.963807,22.6028291 C109.515549,23.6688419 112.622303,26.7544034 114.573018,24.6760981 C116.270287,22.8680732 112.242952,20.2424921 111.17848,19.2805624 C112.262574,20.0863674 113.338492,20.8921723 114.566478,21.4612721 C115.81572,22.0421231 117.122192,22.4735645 118.314205,23.192074 C119.301826,23.7846764 122.673472,26.3447859 120.560879,27.5132031 C119.581433,28.0554426 118.301124,28.1393807 117.225205,28.3861584 C115.967787,28.6665114 114.725086,29.0878802 113.444776,29.2759014 C111.198102,29.6133322 109.965211,27.9244993 108.742131,26.2994593 C106.331943,23.0947059 103.444297,21.4260181 100.277042,19.136189 C98.224949,17.6555224 96.1875721,16.1345655 94.392195,14.3215044 C93.1625743,13.0725067 91.9885481,11.6690631 90.4874951,10.7574962 C88.996253,9.84928686 87.4723081,10.0154841 85.8649715,9.6360843 C84.4636617,9.29025967 83.3403246,9.08209339 81.9030419,9.62936926 C80.7584481,10.072562 79.8149758,10.408314 78.5559227,10.408314 C76.801424,10.4032778 74.3634393,11.010989 73.7420884,13.0456465 C74.2636961,12.4010026 75.2366008,12.0081726 76.0165597,11.9091258 C76.8978969,11.8050426 77.875707,11.5700162 78.7210712,11.9678824 C79.5680706,12.3590336 80.35457,13.0657917 81.1394343,13.5727773 C83.3239733,14.9762209 85.4300258,16.3225867 87.4804838,17.9258028 Z" fill="#FFFFFF"></path>
            <path d="M69.2127673,31.323989 C69.5234428,31.9988507 69.9714695,32.6737123 70.6647663,32.9809255 C72.1200355,33.6322845 71.9614275,32.29767 71.9418059,31.2904138 C71.9091032,29.579757 72.3162516,27.8506339 72.358765,26.1366196 C72.4110893,24.0599931 72.6383729,22.0085479 73.0160889,19.9604603 C73.2188455,18.8877325 73.3333049,17.8368285 73.8451018,16.8463599 C74.2571556,16.04727 74.8032903,14.9661483 75.5358303,14.4440539 C74.5939931,14.5078468 73.7764262,14.9426457 73.0978456,15.599041 C72.4356163,16.2520788 72.2377651,17.4641437 71.9467113,18.3421354 C71.2305226,20.5110937 70.6549555,22.6061866 70.1562396,24.8339016 C69.6755102,26.9592121 68.2120653,29.1298493 69.2127673,31.323989 Z" fill="#FFFFFF"></path>
            <path d="M104.901201,34.3575089 C103.710823,33.1555165 102.113297,32.5696292 100.664569,31.7772543 C99.9663666,31.401212 99.4349481,30.952983 98.8855431,30.3889195 C98.3001651,29.776172 97.639571,29.3833421 96.9544499,28.9032166 C96.0600316,28.2803965 95.3536538,27.506488 94.5671543,26.7527246 C93.5729929,25.8109401 92.3548181,25.1411147 91.1301028,24.5837663 C90.4090087,24.2513717 89.9201036,23.7359923 89.3249149,23.2206129 C88.8883341,22.8580007 88.2735238,22.2989735 87.6587134,22.5037822 C87.5050108,22.9687988 88.6038208,23.6906658 88.9063206,24.004594 C89.143415,24.2379417 89.3706986,24.4209265 89.6225093,24.6290928 C89.8448875,24.8053626 90.3648601,25.2149802 90.4629681,25.4651155 C89.5505634,25.1092183 88.6283478,24.7801812 87.7486458,24.3369885 C86.1429442,23.5311836 84.4407698,22.1143098 82.5407441,22.5944353 C81.9766229,22.7320936 81.4615557,23.0628094 81.0969209,23.5076809 C79.5451787,25.4046801 79.4176383,28.3979098 79.474868,30.7297079 C79.5500841,33.9848241 80.6734212,36.962945 81.5073395,40.0434702 C81.8621635,41.3445094 82.8252574,42.3366568 83.4384327,43.5151465 C84.3769996,45.3063838 84.5928372,47.0757972 84.9852694,49.0114079 C85.2926746,50.5877638 87.1256597,51.9123057 88.3994291,52.6476027 C89.9724279,53.5373457 91.3819134,53.2821741 93.0677365,53.5037705 C94.4510598,53.6934704 95.7379102,54.3313993 96.8890445,55.1204167 C98.090868,55.9547606 99.5117994,57.3044839 101.079893,56.8126071 C102.561324,56.344233 102.63654,54.8115248 103.303675,53.619605 C104.080364,52.2363064 104.144134,50.9134433 104.194823,49.3354086 C104.274945,46.8978486 105.146471,44.7137814 105.542173,42.3668745 C105.849579,40.5924248 106.263267,38.6383478 104.624863,37.4162102 C103.441026,36.5382186 101.938338,35.9321861 100.648217,35.2522882 C101.83696,35.5443925 102.984824,36.0765595 104.193188,36.2511506 C105.98693,36.521431 105.98693,35.463812 104.901201,34.3575089 Z" fill="#FFFFFF"></path>
            <path d="M81.989704,51.8233314 C82.5407441,51.9744198 83.1997031,51.8904818 83.6526352,52.2598091 C83.9126215,52.4679754 83.9829323,52.7869398 84.2249321,53.0051787 C85.5215933,54.1769534 87.3758352,54.5815346 88.4010642,56.1343879 C88.752618,56.6598399 88.9799016,57.2625149 89.3200095,57.8097907 C89.8906712,58.7146426 90.7000625,59.2971724 91.4424134,60.0526145 C92.3646289,60.9893628 93.4062092,61.7280174 94.4477895,62.4767445 C95.3994375,63.1566424 96.5374907,63.7777837 97.6199494,64.2679817 C100.576272,65.575736 99.7963127,69.7491342 98.8610161,72.1682279 C98.1317463,74.0383669 97.8733952,76.1049208 97.8096249,78.1076819 C97.7523953,79.7511883 97.6330305,81.7589856 95.5286131,81.7589856 C95.3978024,82.1618881 95.9341263,82.5043552 96.1941126,82.7528117 C96.5930853,83.1238178 96.8023824,83.0919213 97.2651253,83.2547611 C97.7573007,83.4243159 98.2445706,83.6341609 98.7547324,83.7298502 C99.3090428,83.8339334 99.6802182,83.6509485 100.19365,83.6173733 C100.92292,83.5686893 101.688163,83.7365653 102.438689,83.6929175 C103.252986,83.6391972 104.052566,83.5233627 104.866863,83.4394247 C105.228228,83.3924194 105.55689,83.3084814 105.942781,83.2732274 C106.28943,83.2514036 106.732551,83.0482736 107.062848,83.1305328 C106.631173,83.1070302 106.251822,83.3286265 105.870835,83.4243159 C105.480038,83.528399 105.043458,83.5686893 104.624863,83.6929175 C103.777864,83.9329802 103.024067,84.2250845 102.214676,84.460111 C101.364406,84.7068888 100.622055,85.0073869 99.7439884,85.2105169 C98.5454352,85.482476 97.5790711,85.4774398 96.4884367,84.8814798 C94.0586277,83.528399 92.3073992,81.203316 90.0754414,79.5715609 C89.3788743,79.0628965 88.6021857,78.9772798 87.7895241,78.7640772 C86.7299573,78.4770092 85.822458,77.8172564 84.846283,77.3237008 C83.479311,76.6354091 82.0730958,76.0260191 80.6701509,75.4132716" fill="#FFFFFF"></path>
            <path d="M107.957266,79.3852185 C107.749604,79.3734672 107.540307,79.3583583 107.324469,79.3583583 C106.075227,79.381861 103.810567,79.543022 104.719701,77.4445716 C105.614119,75.3830539 108.089712,74.1928128 109.489387,72.5123737 C110.336386,71.508475 111.059115,70.3518092 111.953534,69.3915583 C112.671357,68.6042197 113.598478,68.1794933 114.483086,67.64229 C115.491963,67.0312212 116.461598,66.6669302 117.231746,65.6831767 C118.054218,64.6255577 117.555503,63.3916688 117.903786,62.1896764 C118.260245,60.9725752 119.264217,60.5109161 120.129203,59.7722616 C119.404839,59.6262094 118.471178,59.72022 117.777881,59.8142306 C117.375638,59.8545208 116.852395,59.8142306 116.455057,59.9183137 C115.930179,60.0677234 115.539382,60.4571958 114.989977,60.5780665 C114.180586,60.7576939 113.487289,61.058192 112.601047,61.058192 C112.143209,61.058192 111.660845,61.0968035 111.204642,61.058192 C109.818049,60.9071036 108.455982,60.5008436 107.08901,60.2893198 C106.619727,60.2188118 106.170065,60.3934029 105.766187,60.6284293 C105.339417,60.8752071 104.933904,60.9641814 104.508769,61.1706689 C104.250418,61.3183998 104.072188,61.5030635 103.79585,61.5953953 C103.759877,61.8925359 103.740256,62.2148579 103.839999,62.486817 C103.926661,62.7335948 104.180107,62.760455 104.237336,63.0693469 C104.902836,63.0575955 105.345957,63.2355441 105.995105,63.089492 C106.546146,62.9703 107.182213,62.8695744 107.770861,62.9753363 C107.594266,63.3194821 107.079199,63.4420317 106.750537,63.5897626 C106.328673,63.776105 106.001646,64.0396703 105.586322,64.195795 C105.56016,64.2746968 105.540538,64.3603136 105.522552,64.4425728 C104.799823,64.5802312 104.103256,65.6663891 103.839999,66.3076755 C102.513905,69.3697344 102.886716,72.9572452 101.985757,76.1485686 C101.611311,77.4714317 100.718528,79.0125337 101.263028,80.446195 C101.823879,81.9201466 103.656864,81.6465087 104.865228,81.2620726 C105.852849,80.9447869 106.799591,81.0220098 107.816645,80.8793152 C108.869671,80.7164755 109.924332,80.4445163 110.911953,80.0281837 C111.982966,79.5816335 113.022911,79.2861717 114.116816,78.9520983 C112.88556,78.9789585 111.742601,79.024285 110.601278,79.3180681 C109.724846,79.5581308 108.843509,79.4322238 107.957266,79.3852185 Z" fill="#FFFFFF"></path>
            <path d="M117.262814,42.3853408 C116.824598,42.7563469 116.337328,43.0753113 115.866409,43.3808457 C115.155126,43.8223597 114.332653,44.1480392 113.698222,44.6986726 C113.000019,45.3080626 112.323074,45.8889136 111.693547,46.5839204 C110.831832,47.53242 110.177778,48.6890859 109.661076,49.8726119 C109.147644,51.0410291 109.255563,52.1103994 109.106765,53.3644334 C109.046265,53.948642 109.020103,54.6688302 109.322603,55.1875671 C109.590765,55.6425112 109.991373,55.8439624 110.480278,55.9749057 C110.787683,56.0454136 111.098359,56.0017659 111.394318,56.0722738 C111.66902,56.1327092 111.857061,56.3190516 112.151385,56.3358392 C111.870142,56.5926895 110.983899,56.6581612 110.547318,56.827716 C110.068224,57.0157371 109.571143,57.1097477 109.10186,57.3884219 C108.004685,58.0162783 106.065416,58.9194513 105.795619,57.0879238 C105.50293,55.0935565 105.80216,53.3476458 106.497092,51.4976519 C107.079199,49.9380836 107.664577,48.3852302 108.218888,46.8105531 C109.078968,44.3746718 108.921995,41.6567588 109.943954,39.2846705 C111.011696,36.7849964 113.132465,35.7324136 115.660382,35.4386306 C118.109813,35.1448475 120.52,34.5874991 122.957985,34.2819647 C123.360228,34.2282444 123.836052,34.1896329 124.207227,34.1443064 C125.054227,34.0351869 125.942105,34.006648 126.798915,34.0133631 C126.226618,33.9361401 125.51697,34.2668559 124.951213,34.3659027 C124.326592,34.4817372 123.698701,34.6395407 123.067539,34.8141317 C121.942567,35.1163086 120.81596,35.3882678 119.743312,35.8432118 C119.332893,36.0077303 118.830907,36.2511506 118.464637,36.5096797 C118.072205,36.7900326 117.88907,37.2903032 117.58984,37.6663455 C117.21703,38.146471 116.811517,38.3731036 116.262112,38.6148451 C115.825531,38.8162964 115.075004,38.965706 114.754518,39.2846705 C115.935085,39.5079456 117.203949,39.2729192 118.364894,39.4609403 C118.495705,39.8823092 118.705002,40.0921542 118.549664,40.5521345 C118.431934,40.9164255 118.232448,41.2823953 118.01661,41.5896084 C117.797502,41.8783552 117.542421,42.1452781 117.262814,42.3853408 Z" fill="#FFFFFF"></path>
            <path d="M135.223125,78.6432064 C136.554124,78.1261483 137.698718,77.2229752 138.181082,75.9437598 C138.840041,74.1995279 138.720676,72.2202694 139.515351,70.5499029 C140.296945,68.9248629 140.40977,67.2091698 141.032756,65.533767 C141.513485,64.2209764 141.902647,62.8796469 142.193701,61.5080998 C142.499471,60.091226 142.765998,58.6911399 143.089754,57.2524423 C143.258173,56.512109 143.251632,55.7700969 143.402065,55.0180123 C143.542686,54.2961454 144.065929,53.5541333 143.959645,52.8003699 C143.681673,54.3683321 142.661349,55.7969571 142.061255,57.2306184 C140.911756,59.9770703 140.357445,62.7856364 139.010095,65.4632591 C138.264474,66.9506407 137.598974,68.4380224 137.250691,70.0177359 C136.733989,72.3646428 135.388273,75.6281529 133.198829,76.8637205 C132.250451,77.4026026 130.880209,77.3656698 129.830453,77.5066857 C128.651521,77.6560954 127.555982,77.9011944 126.413023,78.1731536 C125.848902,78.3192057 125.355091,78.4837242 124.813862,78.6348126 C124.557146,78.7053206 124.282444,78.8094037 123.999565,78.8799117 C123.667633,78.9672072 123.301363,78.9789585 122.972701,79.0696116 C122.506688,79.1955186 121.989986,79.3936123 121.527243,79.5648459 C120.94023,79.781406 120.356487,79.9375307 119.782555,80.1322669 C118.655948,80.516703 117.262814,81.4181973 116.034828,81.3191504 C118.513691,81.3342593 121.051419,80.5150242 123.409282,79.9694271 C124.630727,79.6890741 126.020591,79.9996448 127.201158,79.6672502 C128.501089,79.3231044 130.000507,78.8782329 131.341317,79.094793 C132.526789,79.2895292 133.955896,79.1401195 135.223125,78.6432064 Z" fill="#FFFFFF"></path>
            <path d="M146.395995,31.9535241 C146.987914,31.9014826 147.612535,32.0844674 147.911764,32.6502097 C148.505318,33.796803 148.152129,34.5925354 147.978805,35.7324136 C147.771143,37.1543236 147.758062,38.5510522 147.290413,39.9360295 C146.943765,40.9684671 146.834211,42.0160136 146.45486,43.0064821 C146.104941,43.918049 145.611131,44.8480822 145.338063,45.7915455 C145.181091,46.3253913 145.118955,46.916315 144.93582,47.4703059 C144.764131,47.9789702 144.448551,48.5279249 144.474713,49.080237 C144.486159,47.2235281 145.10751,45.3903218 145.094428,43.505074 C145.087888,42.5935071 145.377307,41.6450075 145.593144,40.7686946 C145.802441,39.8990968 145.776279,38.8246902 145.566982,37.9215171 C145.459063,37.4481067 144.31447,39.007675 144.250699,39.1453334 C144.549929,38.7323583 144.486159,38.3412072 144.391321,37.8963357 C144.281767,37.3893501 144.397861,36.9528724 144.353713,36.4458868 C144.309564,36.0094091 144.177118,35.6585482 144.100267,35.2321431 C143.853362,33.8572383 142.903349,33.3401802 141.724417,33.0212157 C140.982067,32.8197645 140.141608,32.4873699 139.345297,32.5394115 C141.001688,32.2338771 142.672795,32.0391409 144.360253,32.0391409 C145.037199,32.0391409 145.666725,32.0341046 146.33386,31.9602392 C146.356752,31.9535241 146.378009,31.9535241 146.395995,31.9535241 Z" fill="#FFFFFF"></path>
            <path d="M120.986014,67.0278637 C121.232919,66.8113036 121.435675,66.577956 121.535419,66.3630746 C121.98508,65.4330414 121.823202,64.2830906 122.375877,63.3329122 C122.562283,63.0038752 122.720891,62.6345479 122.930188,62.3038321 C123.170552,61.919396 123.633295,61.6910846 123.808255,61.2881821 C122.555742,61.0430831 121.308135,62.2047853 120.681879,63.2036477 C120.310703,63.7878563 120.336865,64.1689349 120.286176,64.8186151 C120.235487,65.5203369 119.861041,66.0810429 119.424461,66.5981011 C118.943731,67.1789521 118.410678,67.3854397 117.840016,67.8336687 C117.651975,67.9780421 117.576759,68.1660632 117.315138,68.335618 C117.069868,68.490064 116.84749,68.4262711 116.737936,68.7267692 C117.403435,68.6864789 118.062394,68.286934 118.701731,68.0267261 C119.010772,67.8974616 119.422825,67.9562182 119.700798,67.84542 C120.049082,67.7094404 120.572325,67.3820821 120.986014,67.0278637 Z" fill="#FFFFFF"></path>
            <path d="M87.812416,46.2934949 C88.1606995,46.4110081 88.7002937,47.2067405 89.0240502,47.4770209 C89.4099419,47.7926279 89.7925632,48.1334162 90.1490224,48.4909921 C90.8455895,49.2178954 91.7367375,49.5049634 92.585372,50.0069127 C93.4372768,50.5122196 94.3202491,51.0309565 95.1885052,51.5261908 C95.9406668,51.9609898 96.8285446,52.4679754 97.456436,53.052184 C96.4344773,52.7902974 95.4550321,52.4746904 94.4461544,52.2027312 C93.4421822,51.9223783 92.5673855,51.8518703 91.5339809,51.79815 C90.2700223,51.7343571 89.3200095,51.3633511 88.2113887,50.740531 C87.055349,50.0908507 85.9843362,49.3202998 84.7154723,48.8737495 C84.0663241,48.6404018 83.3615814,48.5296036 82.7238791,48.2643595 C81.9324743,47.9269287 81.2669748,47.3477564 80.6178266,46.8004805" fill="#8E9090"></path>
            <path d="M142.661349,47.539135 C142.97366,46.7316513 142.810146,45.9157738 142.921335,45.0831087 C143.024349,44.3545267 143.243457,43.6460898 143.344835,42.9124716 C143.408605,42.4172373 143.21893,41.8817127 143.452754,41.4435563 C142.783984,42.3030816 142.314701,43.6460898 141.920633,44.6516673 C141.673728,45.2828812 141.505309,45.7898668 141.381039,46.4345107 C141.210985,47.2722121 141.302553,48.1149498 141.296012,48.9526512 C141.296012,49.9196172 141.173377,50.8966557 141.153756,51.8736942 C141.282931,51.1383972 141.627944,50.4584993 141.869944,49.7232022 C142.118485,48.9677601 142.391552,48.2542869 142.661349,47.539135 Z" fill="#FFFFFF"></path>
            <path d="M23.8786786,107.450734 C23.8786786,107.450734 16.0480221,107.38862 14.264091,106.777551 C13.6116726,106.555954 13.1750918,105.441258 12.3019303,102.746847 C11.4254985,100.055794 8.37106825,91.0828205 7.27389337,85.0224957 C6.17998876,78.9672072 4.87024646,69.9975907 3.9954498,66.8566302 C3.12228827,63.7190271 0.064587791,54.0728702 0.502803689,52.5065869 C0.939384453,50.9251946 7.82656864,46.5704903 11.8653495,42.6321186 C16.2327923,38.3747824 24.9709481,33.2159519 26.9396494,31.8628711 C28.9018101,30.5232203 34.3647926,26.0392515 36.7635341,25.3610323 C39.1704513,24.6962432 47.248013,24.5770512 52.0602122,25.6951056 C55.8962365,26.5932424 63.2118257,25.3543173 69.7670777,25.5843074 C76.3190595,25.8126188 82.6633792,25.5507322 84.4113374,27.1304457 C86.1560253,28.6984079 87.1469165,36.7833176 88.0168077,40.5957823 C88.8916044,44.4048895 91.6042916,53.3275007 92.2845073,57.9961331 C93.1527635,64.0480641 96.5963556,74.058512 96.8170986,76.5195746 C97.0329363,78.9839948 95.1901404,80.2799978 92.7815881,83.6442335 C90.3844817,87.0101479 82.465528,92.3939323 79.8362326,96.8795799 C78.2550581,99.5974929 68.4426192,109.018696 66.2597154,109.696915 C64.0751765,110.370098 54.6796968,108.792063 50.9630373,108.792063 C47.2512833,108.792063 30.8672411,106.106047 23.8786786,107.450734 Z" fill="#8E9090"></path>
            <path d="M80.7044887,28.7873821 C80.1959621,28.6245424 79.6318408,28.5540345 79.1053277,28.4700964 C78.0948149,28.2988629 77.0139914,28.319008 75.9789516,28.2753602 C74.4729932,28.2082098 72.9899267,28.6312574 71.4905089,28.592646 C70.5486718,28.5808946 69.7752534,28.1729559 68.8628487,28.0285825 C66.1943101,27.5853898 63.4816228,28.893144 60.7918275,28.6715477 C58.6759642,28.5087079 56.5633711,28.592646 54.4605888,28.5019929 C55.3582774,28.5792159 56.2706821,28.8125636 57.1389383,29.0207298 C58.3996265,29.3262642 59.7338958,29.2893315 61.0256516,29.5915083 C61.5194621,29.7090216 62.0083671,29.7610631 62.5348803,29.8131047 C62.7866909,29.8382861 63.0401367,29.8852914 63.2968527,29.9104728 C63.4505553,29.9239029 63.8478928,29.944048 63.9885144,30.0347011 C63.0695691,30.224401 62.0198131,30.2781213 61.0926921,30.2949089 C60.0445713,30.3133753 59.101099,30.1522143 58.051343,30.1656444 C57.5689785,30.1773957 57.1765463,30.105209 56.7154386,30.105209 C54.5423455,30.0850639 52.228631,29.7476331 50.0882407,29.4756739 C48.6493228,29.2876527 47.0354456,29.3313005 45.599798,29.4353836 C45.0929065,29.4706376 44.7250013,29.6720888 44.2262855,29.7258092 C43.2746375,29.8366074 42.2641247,29.7140579 41.3075714,29.7258092 C43.5100968,28.9552582 45.7453249,28.3828009 48.00508,27.9513595 C47.2888913,27.6995455 46.5727027,27.8875666 45.8467032,27.7969136 C45.2057307,27.7180118 44.6301635,27.6525402 43.9712046,27.6475039 C42.6745433,27.6407888 41.3451794,27.6206437 40.0648696,27.4661978 C38.2858438,27.2664253 36.7798855,28.2014948 35.3687649,29.1785333 C34.6329546,29.6905552 33.893874,30.1454993 33.1335368,30.6088371 C32.3977265,31.0503511 31.8728485,31.7772543 31.1582949,32.2792036 C30.5418495,32.7072875 29.9417553,33.1387289 29.3285801,33.551704 C28.9083506,33.845487 28.1022296,34.3323275 27.8602298,34.7570539 C28.2248646,34.7033336 28.5747833,34.4431257 28.9148912,34.3188974 C29.3105936,34.1762028 29.7013906,34.0536533 30.0742011,33.9562852 C30.4486468,33.845487 30.8917681,33.7900879 31.3038219,33.8421295 C31.5932406,33.8773835 31.9104566,33.8135906 32.1949699,33.8924923 C32.4860237,33.9680365 32.7329289,34.12584 33.0370639,34.203063 C33.8415498,34.3994779 34.6558465,34.5304212 35.4815891,34.6412194 C36.3024264,34.7587326 37.1265339,34.8376344 37.9555468,34.9131786 C38.3725059,34.9585051 38.7960056,34.9920803 39.216235,35.0306918 C39.544897,35.0693033 40.0746804,35.2321431 40.3853558,35.1532413 C38.4787896,35.673657 36.5869397,36.0950259 34.6313195,36.1672126 C32.598848,36.2377205 30.5663765,36.0345905 28.5535266,36.2847258 C28.0597161,36.3485187 27.5659057,36.4912133 27.0900817,36.647338 C26.5782848,36.815214 25.9880014,36.9260122 25.5138126,37.1543236 C24.7420293,37.5186146 23.626868,38.3227408 23.8230841,39.358536 C24.0389217,40.506808 25.4255153,40.7737309 26.324839,40.8324875 C28.9835668,41.0070786 31.6864432,40.6108912 34.3762386,40.6998655 C35.4734134,40.7334407 36.5411559,40.9617521 37.6317903,41.1564883 C38.5605463,41.319328 39.3977349,41.2269962 40.3101397,41.2269962 C41.3484497,41.2269962 42.3540571,41.4015873 43.3923671,41.200136 C44.4879069,40.9718246 45.6602979,40.9147468 46.8048917,40.9080317 C49.0384847,40.9080317 51.0971183,41.6701889 53.3192653,41.6634739 C52.0667527,41.6567588 50.8044293,41.6567588 49.5666329,41.8128836 C48.9959712,41.8766764 48.4514716,42.0730914 47.8268504,42.1049879 C47.1548104,42.1503144 46.5089325,42.2695064 45.8646897,42.4172373 C44.7168256,42.6975902 43.426705,43.0098397 42.2232464,43.0098397 C41.5708279,43.0098397 40.9625581,43.0669175 40.3297613,43.1592493 C39.6969644,43.2633325 39.0314649,43.1458193 38.410114,43.2952289 C37.6906551,43.4647837 37.018615,43.6108359 36.2631831,43.7132402 C34.5348466,43.9398729 32.7966992,44.1681843 31.0438356,44.1111064 C29.8093094,44.0758525 28.6254725,43.7585668 27.4040274,43.6595199 C26.4736362,43.595727 25.5170828,43.5839757 24.5932321,43.6947739 C23.7642192,43.7854269 22.9221253,44.1043914 22.0914772,44.1161427 C21.1823427,44.1413241 19.0157903,43.595727 19.2054658,42.334978 C19.3199252,41.5946447 20.5609918,40.3338957 21.1937887,40.0082162 C19.9069383,40.6713265 18.610277,41.3008617 17.4329806,42.1637445 C16.9015621,42.5481806 16.3374408,42.9124716 15.8501709,43.3472705 C15.204293,43.9230853 14.4439557,44.4132833 13.9125372,45.1284352 C13.4628754,45.7243951 13.2666593,46.5268426 12.7483218,47.0707609 C10.7044044,49.2027865 7.72682547,50.3426648 5.34443531,51.9425234 C4.98634097,52.1876224 4.55630075,52.5720585 4.29631445,52.9162044 C4.11317945,53.1562671 4.08047677,53.3963298 4.08047677,53.7085793 C4.09355784,54.5210993 4.29140905,55.5417855 4.50070619,56.3224091 C4.67076012,56.918369 4.88496267,57.4841112 5.02558419,58.0632836 C5.17765165,58.655886 5.46707036,59.1611928 5.6812729,59.7487589 C5.54392165,59.468406 5.54882705,59.0520734 5.51121897,58.7599691 C5.47361089,58.4292533 5.47361089,58.1119676 5.42946227,57.7846093 C5.33298937,57.1349291 5.30192183,56.5104302 5.40330013,55.8473199 C5.49159736,55.2765414 5.64366482,54.7897009 5.90528625,54.2760002 C6.36148863,53.3510033 7.01227194,53.2015936 7.891974,52.9850336 C8.84198682,52.7617584 9.8279726,52.862484 10.8057827,52.8809504 C12.6600246,52.897738 14.5142665,52.9195619 16.3750489,52.932992 C18.1360882,52.932992 19.8497086,52.7970124 21.6238289,53.01693 C22.5673012,53.1394795 23.5222194,53.0437902 24.4722322,53.0303601 C25.2963397,53.0253238 26.1237175,53.2586715 26.934744,53.2116662 C28.6794319,53.1210131 30.4404711,53.0303601 32.2015104,52.9716035 C33.0370639,52.939707 33.7663336,52.6492815 34.6264141,52.6559965 C35.455427,52.6627116 36.2272102,52.5099444 37.0578582,52.5099444 C38.7551273,52.5183382 40.4049774,52.9481008 42.08426,52.9598521 C42.9377999,52.9648884 43.8387587,53.1948786 44.672677,53.1226919 C46.857216,52.9212407 49.1055252,53.3241431 51.2246588,52.5451983 C53.2636708,51.8099013 55.170237,50.4081364 56.8233574,49.0349105 C57.6131271,48.3785152 58.5942075,48.015903 59.3594502,47.3125024 C60.3814089,46.3791117 61.3395974,45.1183626 62.5463262,44.4216771 C62.9354881,44.2017595 63.3475419,44.0389198 63.7040011,43.7401004 C64.2877439,43.2717263 64.7848246,42.6673726 65.3244188,42.1419206 C65.9653913,41.5241368 66.6161746,40.913068 67.2865795,40.3255019 C67.9896871,39.7093969 68.8612135,39.1251883 69.6934967,38.713892 C70.1627801,38.5006894 70.4914421,38.2186577 70.5682934,37.6881694 C70.6189825,37.3322722 70.5045231,37.1962926 70.3589962,36.9746963 C70.3851584,37.011629 69.8504696,36.4844983 69.9714695,36.5231098 C69.0983079,36.2293267 68.2513086,36.4559593 67.3503498,36.3468399 C66.5017152,36.2360417 65.7037699,35.9137198 64.8355137,35.8952534 C64.0146765,35.8599994 63.0761096,35.7844552 62.2667183,35.8952534 C61.6192053,35.9758339 60.6364898,35.9086835 60.0380307,36.199109 C61.4229892,36.1655338 63.0630285,36.2360417 64.2027169,37.1022821 C62.6526099,37.0418467 61.2055164,37.3893501 59.6194365,37.4011014 C58.8165857,37.4078164 58.0693295,37.1946139 57.2713841,37.095567 C56.6827359,37.0317741 56.0695606,37.166075 55.4858178,37.0368104 C54.7647238,36.8739707 54.1891566,36.7564574 53.4157383,36.7111309 C52.4215768,36.6590893 51.4339559,36.5600425 50.446335,36.3938452 C49.9590651,36.3015134 49.4767006,36.2041453 48.9959712,36.0866321 C48.5593904,35.9741551 47.9772827,35.6635845 47.5325263,35.6568694 C50.0915109,35.6803721 52.6096172,35.5359987 55.1555208,35.0860909 C57.5542623,34.658007 59.9350173,34.0654046 62.3926236,34.0133631 C63.4750823,34.0016117 64.5150275,33.9529277 65.5893105,33.8253419 C66.0667696,33.7649065 66.5540395,33.6322845 67.0004311,33.5752066 C67.5089578,33.5046987 68.0158493,33.5013412 68.5031192,33.4644084 C68.9952945,33.4190819 69.5724968,33.4056518 70.0646721,33.4644084 C71.0588336,33.5752066 72.1478328,33.6524296 73.1354537,33.51645 C73.6210884,33.4492996 74.0609395,33.4056518 74.5482094,33.2428121 C75.8399652,32.8197645 76.8292213,31.3558855 77.7825043,30.4594274 C78.3237337,29.9524418 78.8616928,29.6754464 79.5435436,29.4857464 C79.9049082,29.3850208 80.3562052,29.2406474 80.7486373,29.2759014 C81.0642182,29.2977253 81.4664611,29.5982234 81.7787717,29.5260367 C81.4125017,29.2893315 81.1361641,28.9384706 80.7044887,28.7873821 Z" fill="#FFFFFF"></path>
            <path d="M10.6340936,76.0696669 C10.5032829,75.480422 10.3512155,74.9012497 10.1909723,74.3220774 C9.01858129,70.2023995 7.67613632,66.01725 6.24048871,61.9865464 C6.67216408,63.1969326 6.60675872,64.7279621 6.87982609,66.0155712 C7.2706231,67.8336687 7.82329838,69.6114759 8.14541976,71.4446821 C8.21409539,71.8257607 8.34163584,72.2588809 8.47571682,72.6517108 C8.74878419,73.4709459 8.95481107,74.261642 9.10033799,75.1295611 C9.2981892,76.2828694 9.44044585,77.4563229 9.56962143,78.6314551 C9.70697268,79.9459245 10.1092156,81.2234611 10.1909723,82.5295366 C10.2612831,83.6358397 10.4771208,84.7841117 10.7927016,85.846767 C11.3175796,87.5960353 11.7296334,89.3755212 12.2937546,91.1029656 C12.6682003,92.2462014 13.0720783,93.3793646 13.5135645,94.4940615 C13.8193346,95.2696488 14.154537,96.0217334 14.49628,96.7805331 C14.7366447,97.3043063 15.0276986,97.8969087 15.0718472,98.4811173 C15.3187524,98.2192307 14.9524824,96.976948 14.8707257,96.6361597 C14.3311315,94.2573563 13.812794,91.7761485 13.4759564,89.3503398 C13.3876592,88.6855507 13.153835,88.0257979 13.0083081,87.3559726 C12.7237948,86.0096068 12.1351466,84.7186401 11.9258495,83.3538079 C11.5514038,80.9011391 11.1982148,78.4686154 10.6340936,76.0696669 Z" fill="#FFFFFF"></path>
            <path d="M76.5316269,94.5125279 C75.8285193,95.2226435 75.0240334,95.8387485 74.3045744,96.5018588 C73.5000885,97.2304408 72.9163457,98.2880598 72.0562653,98.9209525 C71.295928,99.485016 70.6451447,100.191774 69.8782668,100.732335 C68.7582001,101.528067 67.9161061,102.731738 66.7355394,103.418351 C65.8329455,103.942125 64.8698516,104.778147 63.7939334,104.771432 C62.7948666,104.763038 61.8252321,104.39539 60.8310707,104.430644 C61.3673946,104.041171 61.7173133,104.021026 62.0263536,103.33945 C62.2945156,102.746847 62.2242048,102.139136 62.1538941,101.509601 C61.9838401,99.8493069 61.0501787,98.4676872 60.5776249,96.9198702 C60.2178955,95.7212353 59.4820852,94.5343517 58.4208833,93.8510963 C57.6213028,93.3407531 56.134966,92.1555483 55.1849532,92.3334969 C55.462926,92.1102218 55.7981284,92.0867192 56.1235201,92.0078174 C57.0277491,91.766076 57.9646809,91.2842717 57.160195,90.2786943 C56.3687902,89.2865469 54.6584401,89.3553761 53.546549,89.3301947 C52.2924012,89.2949407 51.0513346,89.4527442 49.8053625,89.4460292 C48.2209177,89.4460292 46.6364729,89.4796044 45.0552984,89.5148583 C43.6899615,89.5501123 42.2199761,89.7515636 40.8693555,89.4796044 C39.5792348,89.2210753 38.2171682,89.3570549 36.8943448,89.2966195 C35.4210892,89.2328266 33.9445632,89.0834169 32.4991048,88.761095 C30.7282547,88.368265 29.1830531,87.6699007 27.3353518,87.7001184 C23.4339222,87.7538388 23.4731654,92.3805022 21.2640994,94.5947871 C20.4988567,95.3569443 19.7630465,96.1543555 18.9928984,96.9114764 C17.5049265,98.3652828 13.3059025,103.038952 16.839427,104.533048 C18.2014935,105.105506 19.6943708,104.506188 21.062978,104.338312 C21.7448288,104.25941 22.3972473,104.146933 23.0889089,104.146933 C23.7773003,104.141897 24.4804079,104.197296 25.1589885,104.130146 C24.493489,104.012633 23.8083679,104.000881 23.1526791,103.831326 C22.4037878,103.641627 21.6565316,103.517398 20.892924,103.482144 C20.3026407,103.451927 19.4180332,103.584549 18.9307633,103.166537 C17.8826424,102.256649 20.6214918,102.384235 20.8994646,102.41781 C21.795518,102.520215 22.760247,102.359054 23.6644761,102.359054 C25.0706913,102.365769 26.4752713,102.402701 27.8798514,102.422847 C29.096391,102.44467 30.291674,102.22811 31.5098487,102.234825 C32.3813751,102.24154 33.2251043,102.50007 34.1162523,102.50007 C37.1363447,102.50007 40.2185722,102.691448 43.219043,102.980195 C43.6114751,103.020485 46.2080678,102.825749 46.1557435,103.201791 C44.1821368,103.490538 42.1807329,103.586227 40.1989505,103.841399 C39.2178702,103.960591 38.1664791,103.814539 37.1788581,103.833005 C36.6850477,103.846435 36.2272102,104.026063 35.7481159,104.073068 C35.2804676,104.108322 34.8177247,104.209048 34.3795088,104.303058 C33.9004146,104.403784 33.3624555,104.472613 32.8735505,104.536406 C32.3290509,104.608592 31.7534837,104.524654 31.2351462,104.694209 C32.0821456,104.694209 32.9307801,104.694209 33.7794147,104.694209 C34.6967248,104.6791 35.6042242,104.590126 36.5264397,104.613629 C37.2246419,104.640489 37.9195738,104.853691 38.6096004,104.927557 C39.4337079,105.028283 40.400072,104.838583 41.1882066,105.076967 C42.5535434,105.486584 44.1314477,105.365713 45.5245818,105.170977 C46.1753651,105.08536 46.8964592,105.102148 47.5505128,105.076967 C48.2209177,105.040034 48.8847821,104.954417 49.5584573,105.04507 C50.0146596,105.108863 50.4381593,105.254915 50.8927266,105.317029 C51.3358479,105.382501 51.7560773,105.402646 52.1991986,105.474833 C53.4059274,105.682999 54.8562913,105.824015 56.0728309,105.661175 C57.2239652,105.520159 58.5091805,105.89788 59.6488689,106.127871 C60.4222872,106.282317 61.1858948,106.342752 61.9789347,106.416617 C63.7252578,106.577778 65.4715809,106.611354 66.8843366,105.382501 C68.8661189,103.655057 70.7040095,101.789954 72.5271838,99.891276 C73.2466428,99.1509426 74.0642097,98.5264438 74.7689525,97.7575716 C76.3648432,96.0234121 77.4309505,94.0122573 78.7832063,92.0867192 C78.0163285,92.872379 77.301775,93.7251893 76.5316269,94.5125279 Z" fill="#FFFFFF"></path>
            <path d="M30.4944306,84.5776242 C31.3070921,84.4466809 32.1083078,84.340919 32.9765639,84.4852924 C34.8259004,84.7857905 36.8763584,84.7857905 38.7567624,84.7790755 C40.4720179,84.7790755 42.0940708,84.2385146 43.8027858,84.2200483 C45.4984197,84.2049394 47.2447427,84.5356552 48.8913226,84.5406915 C49.713795,84.5406915 50.544443,84.5406915 51.373456,84.5406915 C52.1158068,84.5457278 53.1328601,84.6917799 53.7476704,84.1528979 C54.5145483,83.4813937 54.8611967,82.2139297 54.8301291,81.2083522 C54.7728994,79.297923 54.5014672,76.8066426 53.584157,75.109416 C52.7093604,73.5061998 52.594901,71.3876043 52.4444687,69.5661493 C52.3676174,68.6562612 52.0978203,67.8353474 51.7740638,67.0010036 C51.1641588,65.4313626 50.3743891,63.9187996 50.1765379,62.2282879 C49.995038,60.6301081 50.3220648,58.8153682 49.2150791,57.4757174 C47.9511206,55.9631544 46.2636624,56.302264 44.574569,56.5221816 C42.5306516,56.7891045 40.5864773,55.8876102 38.5719923,55.8271748 C37.213196,55.7885633 35.8821969,55.45449 34.5152249,55.4360236 C33.1041043,55.4108422 31.7681999,56.0084809 30.3243766,55.9631544 C27.1031628,55.8456412 22.0309773,54.7343018 20.1685597,58.2815224 C19.74506,59.0906849 19.4425602,60.1634127 19.4489967,61.0917672 C19.4489967,62.2870445 19.7826681,63.1885388 20.0181274,64.2679817 C20.1260462,64.763216 20.4105595,65.1107194 20.4612487,65.6294564 C20.5495459,66.5309507 20.4236406,67.4089423 20.6313026,68.300364 C20.8422349,69.1968221 20.7850052,70.0832075 20.8226133,71.0031682 C20.8487754,71.5940918 20.8978294,72.1850155 20.9992077,72.7725816 C21.4406939,75.2554681 22.8469091,77.4982919 23.2099088,79.9744634 C23.4355573,81.5642494 24.151746,83.8339334 25.8555556,84.3459553 C26.7107306,84.5994481 27.4367301,84.8714073 28.3491348,84.8395108 C29.1029316,84.8193657 29.7978635,84.6833861 30.4944306,84.5776242 Z" fill="#FFFFFF"></path>
            <path d="M34.8929409,76.2308279 C34.3746034,76.1452111 33.9004146,76.138496 33.3510096,75.9504749 C32.7361992,75.7355936 32.1639023,75.6331892 31.5556325,75.4821007 C30.7658628,75.2940796 30.1755794,74.758555 29.3743638,74.590679 C28.5012023,74.4076941 27.8046352,73.8923147 27.057379,73.4121893 C26.7843116,73.2476707 26.4981632,73.1973079 26.2708796,72.9555664 C26.068123,72.7339701 26.0305149,72.4603321 25.7852448,72.2538446 C25.4745693,72.0003518 25.1262858,72.0003518 24.8744752,71.6478121 C24.6962456,71.4077494 24.62757,71.0636036 24.4542458,70.7966807 C23.7380571,69.7256316 23.3603412,68.5874321 22.8926928,67.3955122 C22.4724634,66.346287 21.7693558,65.2148026 21.5175452,64.1152145 C21.6745181,64.79847 21.8576531,65.3910724 21.9475854,66.0541827 C22.0293421,66.6702878 22.0996529,67.3770459 22.1879501,68.0267261 C22.3269365,69.1363867 22.8142064,70.1402854 22.9286658,71.2533035 C23.0562062,72.4771198 22.8599902,73.7110086 23.1641251,74.9213948 C23.3472601,75.6617281 23.5696383,76.4154915 23.6890031,77.1726124 C23.8018273,77.8978369 24.1059622,78.4786879 24.3201648,79.1753735 C24.5131106,79.8032298 24.7273131,80.5284543 25.1017588,81.0874815 C26.0239744,82.4858888 28.1758106,82.7309879 29.6588771,82.4204172 C31.6651865,82.0040846 33.4965365,83.0113408 35.4407108,82.751133 C37.5418579,82.47078 39.5236402,82.3499093 41.6378684,82.6000445 C42.7513946,82.7293091 43.8469344,82.8619312 44.9784471,82.8619312 C46.1050544,82.8619312 47.4344183,82.828356 48.505431,82.596687 C49.0679171,82.47078 49.677822,82.4237747 50.2403081,82.3532668 C50.8027942,82.2760438 51.3930776,82.1534943 51.9441177,82.1870695 C50.714497,81.8865714 49.4914168,81.7606644 48.2389042,81.5978246 C47.2447427,81.4735964 46.2571218,81.3443318 45.2629604,81.2251398 C44.8819742,81.1831708 43.4855698,81.0186523 44.1805017,80.3824021 C44.635069,79.9610333 45.4019468,79.9811784 45.9595274,79.9224218 C46.6086756,79.8569502 47.2185806,79.5648459 47.8840801,79.6487839 C47.6257289,79.3415707 46.5105676,79.3365345 46.1050544,79.2475602 C45.0667443,79.010855 44.0153532,78.8362639 43.0032053,78.4820455 C41.9125709,78.121112 41.0410445,77.6208414 40.0141804,77.1205708 C38.9627893,76.5984764 37.8165604,76.8922594 36.652345,76.7596374 C36.1405481,76.6975232 35.6418322,76.37688 35.126765,76.2744756 C35.053184,76.257688 34.9714273,76.2492942 34.8929409,76.2308279 Z" fill="#8E9090"></path>
            <path d="M20.78337,97.9036237 C20.3778568,98.3719979 19.3836954,99.6545707 19.8562491,100.322717 C20.1293165,100.692045 20.941978,100.908605 21.3654777,100.972398 C22.3907067,101.135237 23.5369356,100.908605 24.5556241,100.757516 C25.6004747,100.592998 26.6763928,100.544314 27.740865,100.606428 C28.2592025,100.640003 28.8020669,100.71219 29.3171341,100.829703 C30.2344443,101.031154 31.2220652,101.319901 32.1442807,101.454202 C32.9242396,101.553249 33.7908606,101.499528 34.5691844,101.408875 C36.384183,101.19903 38.2842087,101.088232 40.1155587,101.094947 C42.8118946,101.094947 45.5033251,101.734555 48.2176474,101.786596 C51.3456587,101.855426 54.4736699,101.68755 57.5935055,101.640544 C55.2503585,101.682513 52.8189144,101.284647 50.5869565,100.586283 C48.6787552,99.9953591 46.6920675,99.8123742 44.7364473,99.4783009 C42.8053541,99.1475851 41.0148824,98.8739472 39.0576271,98.7883304 C37.9996954,98.7497189 36.9123313,98.769864 35.8658456,98.553304 C35.2199677,98.4089306 34.662387,98.195728 33.9870767,98.1638316 C32.5923074,98.118505 29.9793634,97.3597054 31.4558893,95.758168 C32.5056453,94.6216473 34.8798598,94.3748695 36.335129,94.1918846 C38.0258575,93.9702883 39.5269105,92.9747834 41.2160039,92.7599021 C42.9574215,92.5265544 44.6285284,93.2601726 46.3634055,93.1493745 C47.0452564,93.1040479 47.6600668,92.9949285 48.3124852,92.8623064 C48.5201472,92.8153012 48.7964848,92.8102649 48.9943361,92.7766897 C49.4374574,92.7280056 49.9378083,92.669249 50.3678486,92.6289588 C51.3816316,92.5248756 52.4003201,92.5248756 53.4386301,92.5248756 C53.0314818,92.5248756 52.6472253,92.2932067 52.2466175,92.2092687 C51.8705367,92.1303669 51.4503072,92.0380351 51.0840372,91.9994236 C50.1977946,91.8886255 49.2232548,91.766076 48.3370122,91.7929361 C47.4327831,91.8181175 46.4778649,92.0212475 45.5458386,91.8953405 C45.1583118,91.8449777 44.7478932,91.8315476 44.3292989,91.7929361 C43.4103536,91.7056406 42.5371921,91.3984274 41.6068009,91.3295983 C40.5668557,91.2574116 39.5170997,91.2506965 38.4771545,91.3849974 C37.2769662,91.5461583 36.3563858,91.4252876 35.1611029,91.2725204 C32.6331858,90.9468409 31.2547679,90.6429853 28.7595534,91.2574116 C27.8095406,91.4941168 26.6714874,91.6821379 25.9732852,92.4627615 C25.2325695,93.2903903 24.3855701,94.0794077 23.675922,94.9557206 C22.8158415,96.0217334 21.6892343,96.8711861 20.78337,97.9036237 Z" fill="#8E9090"></path>
            <path d="M70.1055505,56.4248135 C70.0188884,56.1511755 69.9305911,55.8792164 69.8995236,55.5652882 C69.8406588,54.9693283 69.8341182,54.403586 69.9485776,53.8176987 C70.0499559,53.3174281 70.429307,52.6677479 70.3164827,52.1473321 C70.0679424,51.0225627 68.5456327,51.0746043 67.8408899,51.6856731 C68.7467542,51.601735 69.7082129,50.0102702 70.0810235,49.2884033 C70.5960906,48.296256 71.1504011,43.2650112 68.7598352,44.5324753 C67.6888225,45.1032538 66.9399311,46.0198569 66.3087694,47.0338282 C65.6105672,48.1384525 64.4087438,48.9442574 63.349177,49.6543731 C62.8635422,49.9800526 62.3452047,50.3292347 61.8628402,50.6952045 C61.2202326,51.1753299 60.6332195,51.7343571 59.9955173,52.2363064 C59.4690041,52.6358514 58.0398971,53.4248688 57.8109783,54.067834 C57.9303431,53.7236881 58.2737212,53.3845785 58.4748427,53.0857592 C58.7740722,52.6509602 59.1648692,52.2614879 59.5262338,51.8770517 C60.1230577,51.2055476 60.6986249,50.5508311 61.2921785,49.8826845 C61.8759213,49.2178954 62.5103533,48.5749302 63.0957312,47.9521101 C63.5780957,47.4451245 64.3645952,46.8441283 64.716149,46.2431321 C64.2877439,46.3321064 63.6729335,47.0086468 63.3230148,47.2856422 C62.848826,47.658327 62.3746372,48.015903 61.9118942,48.3953028 C60.9700571,49.1742476 60.1655712,50.215079 59.2090178,50.9268734 C58.393086,51.5345846 57.6016812,52.1893012 56.7971953,52.8003699 C55.9354797,53.4618015 55.0803046,54.0594402 54.2725484,54.7913797 C53.8294271,55.2009972 53.6642786,55.4578475 53.4811436,56.0437349 C53.3977518,56.3190516 53.3421572,56.5070727 53.3536032,56.7840682 C53.3732248,57.2188671 53.4876841,57.534474 53.4288193,57.975988 C53.3650491,58.4510772 53.2751167,58.8976274 53.2636708,59.3827892 C53.2456843,60.3145012 53.4026572,61.2495707 53.7018867,62.1325986 C54.010927,63.0760619 54.3902781,64.0044164 54.7205751,64.9462009 C55.036156,65.820835 55.2078451,66.6921117 55.4040611,67.5952847 C55.6395204,68.6948727 56.1006282,69.6853413 56.3164659,70.7849293 C56.5878981,72.1547978 56.8348033,73.5364175 57.0113978,74.9213948 C57.2403166,76.6538755 57.3907489,78.9353107 58.6334507,80.2699252 C60.6593816,82.4472774 62.6591505,77.9347696 63.3410013,76.5346835 C63.556839,76.0948483 63.8544334,75.7070546 64.1013386,75.2974371 C64.6507436,74.387549 65.1020406,73.491091 65.741378,72.6920011 C66.4641072,71.7737192 67.4370119,70.766463 67.8310791,69.5308954 C68.5145651,67.397191 68.3428761,65.2383052 68.854673,63.1029221 C69.0198215,62.4414905 69.2863484,61.7565563 69.6084697,61.1555601 C70.2232801,59.9888217 70.7056446,58.5736267 70.3639016,57.2272609 C70.295226,56.9435504 70.2003882,56.6900576 70.1055505,56.4248135 Z" fill="#FFFFFF"></path>
            <path d="M93.8656819,72.8565196 C93.7446819,72.4670472 93.5729929,72.0809323 93.3489795,71.7032112 C92.7815881,70.7278515 92.4480207,69.7474555 92.2714263,68.622686 C91.9084265,66.3496445 91.9149671,64.4039613 90.7196841,62.4163091 C89.3805094,60.1734853 89.0322259,57.4236759 88.5106182,54.893784 C88.2244697,53.4785891 88.1999427,51.966026 87.8631051,50.5676187 C87.4641325,48.9408999 86.8264302,47.3091449 86.2884711,45.7059288 C85.786485,44.2252621 85.3940529,42.6371549 85.0343234,41.1044467 C84.7089318,39.7194694 84.2936077,38.4469691 83.9698512,37.0687069 C83.7932567,36.2947983 83.5071083,35.4755633 83.3027166,34.73523 C83.1228518,34.0385445 82.8056358,33.1488015 82.3935821,32.5629141 C82.4132037,32.9993918 82.4753388,33.397258 82.5505549,33.8186269 C82.7271494,34.8678521 83.1849869,35.7911702 83.296176,36.8806857 C83.4564191,38.3814974 83.6771622,39.7194694 83.7082298,41.277359 C83.7016892,40.8408813 83.3730273,40.2247763 83.1849869,39.8520915 C82.9626087,39.4223288 82.7794737,39.0059963 82.5276631,38.5896637 C82.2791227,38.1682949 82.1581228,37.6294128 81.9700824,37.1744688 C81.6152583,36.3015134 81.5956367,35.0239768 80.4772051,34.7688052 C78.9450846,34.4179443 78.4561795,36.1772851 77.4800046,37.0065927 C76.8243159,37.5505111 76.0950461,38.062533 75.5113033,38.7290008 C74.8686957,39.4760492 74.4124933,40.3825798 73.6815884,41.0289025 C74.7656822,40.1995949 75.8530463,39.2225564 77.1627886,38.8112601 C78.5755443,38.3462435 79.7185029,39.1033644 80.4543132,40.3422895 C80.854921,41.0339388 80.8990697,41.7171942 81.1198127,42.4491337 C81.3323801,43.1391042 81.6577718,43.8156446 81.8850554,44.5039364 C82.087812,45.1284352 82.0044202,45.7764367 82.087812,46.4496196 C82.233339,47.6549695 82.6453927,48.7209823 82.9233655,49.8910783 C83.2029734,51.0678893 83.5741488,52.2984206 83.9862025,53.4668378 C84.1954997,54.0443313 84.4129725,54.5916072 84.638621,55.1556707 C84.8413776,55.6441899 84.8413776,56.3912383 85.2289043,56.7555293 C85.2828638,56.386202 85.0490396,55.944688 85.0065261,55.5703245 C84.9607424,55.1875671 84.9885397,54.7813071 84.93131,54.4103011 C84.8479181,53.7320819 84.4685671,53.0034999 84.3917158,52.3437471 C84.2265672,50.7640336 83.7572838,49.1440299 83.9731215,47.5122749 C85.6425932,46.916315 86.5615385,53.7203306 86.7299573,54.7343018 C86.9392545,56.0739526 87.2401191,57.3347016 87.6505377,58.6474921 C87.8663754,59.3475352 88.1803211,59.9988942 88.3225778,60.7274762 C88.5891046,62.1074172 89.094361,63.3933476 89.3690635,64.763216 C89.3952256,64.9210195 89.4230229,65.0805017 89.4622661,65.2299114 C89.6977254,66.3496445 89.9315496,67.487844 90.3059953,68.5572144 C90.6559139,69.5779007 90.7311301,70.6288046 90.950238,71.6914599 C91.1415487,72.5996693 91.2887108,73.5565626 91.3721026,74.4765233 C91.4603998,75.3494787 91.6026565,76.2006102 91.5143592,77.105462 C91.2641838,79.6571777 88.8899693,81.8748201 87.1485516,83.4729999 C85.8437147,84.6817074 85.1618639,86.4276181 83.9584053,87.7303361 C84.9329451,86.9950391 85.8502552,86.0532545 86.713606,85.1819779 C87.4935649,84.3744942 88.3781723,83.6559848 89.1630366,82.8669674 C89.9086577,82.1031315 90.5169275,81.3980521 90.9453326,80.4529101 C91.3541161,79.5547733 92.2518047,79.059539 92.8093853,78.2805942 C93.525574,77.273338 94.050452,76.5816888 94.1338438,75.2907221 C94.1812627,74.4328755 94.1125871,73.6354644 93.8656819,72.8565196 Z" fill="#FFFFFF"></path>
            <path d="M68.8579433,98.3736766 C68.9969296,98.2225882 69.1310106,98.0664635 69.2634565,97.9053025 C69.7196588,97.341239 70.0499559,96.7503154 70.4750907,96.2080758 C71.4234684,95.0044046 72.6727108,94.0256874 73.7715208,92.984856 C73.3218589,93.320608 72.1134949,94.0307236 71.588617,93.4985566 C71.0441173,92.9479232 71.80936,92.1202944 72.1838057,91.7459308 C73.042251,90.847794 74.3421825,89.9395847 74.567831,88.613364 C74.8408984,87.0202205 74.1623178,85.3733566 74.5563851,83.7785343 C74.6839255,83.2614761 75.0485604,82.5983658 75.2905602,82.1081678 C75.7009788,81.2805389 76.2291271,79.6554989 75.8922895,78.7237869 C74.9798848,76.2039677 70.721996,80.6224649 69.8161318,81.4215548 C68.6388353,82.4674225 67.3846876,83.437746 66.0684047,84.2838412 C65.0415406,84.950309 63.862609,85.482476 63.0352313,86.4175455 C62.4416776,87.1024798 62.1293671,87.9687201 62.1293671,88.8903595 C62.1359076,90.560726 63.0107043,91.9994236 63.3769743,93.5673858 C63.7694064,95.2310373 63.7563253,97.0172383 64.2959195,98.6607446 C64.5003113,99.2768497 65.0284596,100.023898 65.7201212,100.002074 C66.9971608,99.9651414 68.0174844,99.2785284 68.8579433,98.3736766 Z" fill="#FFFFFF"></path>
            <path d="M79.4110978,79.752867 C79.5124761,79.3600371 79.5762463,78.9772798 79.6073138,78.5878074 C79.6776246,77.6527379 79.5713409,76.3785588 80.1093,75.5610025 C80.4772051,75.0070116 80.9710155,74.5319224 81.355272,73.9980766 C81.7624204,73.4356919 82.1221498,72.8363745 82.4818793,72.230342 C81.989704,72.5140525 81.5007989,73.0176806 81.0805695,73.413868 C80.5998401,73.8570607 80.1420026,74.2297455 79.5909625,74.5890002 C79.1020574,74.9012497 78.7128956,75.6113653 78.4529093,76.138496 C78.1356933,76.7646736 78.1160717,77.399245 78.1994635,78.0841793 C78.241977,78.4635791 78.2746797,78.6902117 78.1994635,79.0410726 C78.0653825,79.6387113 77.8168422,80.152412 77.5781126,80.7131179 C77.3426533,81.2637513 77.1611534,81.9016802 77.1349913,82.5295366 C77.1088292,83.2497248 77.2363696,83.9027626 77.2232885,84.5876968 C77.4195046,83.8372909 77.4636532,83.1406054 77.8168422,82.4086659 C78.1275176,81.7573069 78.7047199,81.3476893 79.0333818,80.719833 C79.1952601,80.404226 79.31626,80.075189 79.4110978,79.752867 Z" fill="#FFFFFF"></path>
          </g>
        </g>
        <path d="M29,170.408109 C29.0200306,170.329636 32.877587,172.886099 40.4007401,175.104258 C47.883832,177.317185 59.1493656,178.745387 72.4429957,176.807985 C79.0731186,175.843644 86.2023369,174.094577 93.7438513,172.019413 C101.268674,169.991332 109.287584,167.412199 117.960826,166.18977 C126.575646,164.894101 135.676207,164.613343 144.823507,165.56199 C153.932414,166.449602 163.358473,167.985921 172,171.845029 C171.986646,171.902576 167.636671,170.116888 159.682861,168.883996 C155.708459,168.266679 150.847705,167.792355 145.26418,167.549962 C139.677316,167.258742 133.409413,167.270949 126.627391,167.952788 C119.833685,168.641603 112.574268,169.965175 105.052785,172.104861 C97.4695397,174.183513 89.4689911,176.551642 80.9977238,178.189103 C72.5448178,179.885855 63.511025,180.557232 54.5389931,179.476054 C45.588661,178.417546 36.5932601,175.587301 29,170.408109 Z" id="Path" fill="#8E9090" fill-rule="nonzero"></path>
        <path d="M21,171.001324 C21.0263062,170.929361 24.375411,173.801059 31.173913,176.933198 C37.9444647,180.089325 48.3452685,182.916474 61.1300694,183.194049 C67.5257581,183.385953 74.4344172,183.007286 81.7047863,181.761627 C88.9784436,180.565657 96.5875046,178.622634 104.531969,176.552818 C112.461637,174.560106 120.782609,172.193867 129.568871,171.451955 C138.307453,170.67406 147.33376,171.325162 156,173.537192 C155.995068,173.600589 151.641396,172.670199 143.996164,172.480009 C136.342711,172.267545 125.479905,173.341861 112.94008,177.166224 C100.349288,180.55709 85.5471319,185.627111 68.9594446,185.98179 C60.7469858,186.130858 52.2237852,185.382091 43.9044574,183.092957 C35.6097917,180.81753 27.5370844,176.83896 21,171.001324 Z" id="Path" fill="#8E9090" fill-rule="nonzero"></path>
        <path d="M177.234062,144.37669 C180.092594,143.2653 182.900664,142.922176 186.027794,143.014233 C188.495639,143.086206 191.284174,143.971635 192.837158,145.755884 C194.655485,147.829696 194.440607,150.99816 191.48603,152.121266 C188.962837,153.085363 186.58778,151.933803 184.30714,150.86091 C182.042778,149.793039 179.701907,149.22228 177.206388,149.153655 C174.658777,149.093399 172.197444,149.63403 169.776807,150.348734 C168.555907,150.701901 167.362681,151.100261 166.182478,151.548833 C165.186224,151.932129 163.830212,152.310403 163,153 C163.942534,152.208302 168.261263,149.130223 168.723577,148.825595 C171.248398,147.130056 173.480202,145.821161 177.234062,144.37669 Z" id="Path" fill="#8E9090" fill-rule="nonzero"></path>
        <path d="M182.254218,135.460332 C184.205772,133.849483 185.929644,131.956693 187.061203,129.635833 C187.966793,127.803213 188.357104,125.398114 187.595313,123.510481 C186.70513,121.299647 184.188653,120.115149 182.178895,121.789606 C179.926048,123.684116 180.573142,126.575736 180.283833,129.218078 C180.039033,131.545814 178.773947,133.720546 177.582471,135.652877 C177.077464,136.474634 174.857143,139.555361 172,142 C172.974065,141.657888 173.987504,141.12495 174.386374,140.89974 C176.577592,139.624127 180.155441,137.201837 182.254218,135.460332 Z" id="Path" fill="#8E9090" fill-rule="nonzero"></path>
        <path d="M166.450653,158.249263 C168.681194,157.948456 170.967377,157.877997 173.193009,158.273653 C174.947331,158.58259 176.790024,159.387452 177.595179,160.548676 C178.536163,161.903663 177.832471,163.65295 175.528287,163.952403 C172.932807,164.288439 171.379774,162.768144 169.451983,161.811524 C167.746756,160.971432 165.542398,160.695014 163.545875,160.489056 C162.704717,160.398272 159.326993,160.227544 156,160.62591 C156.814974,160.291228 157.770687,160.005326 158.1569,159.907767 C160.312163,159.338673 164.046643,158.570395 166.450653,158.249263 Z" id="Path" fill="#8E9090" fill-rule="nonzero"></path>
      </g>
    </g>
  </g>
</svg>
